<svg xmlns="http://www.w3.org/2000/svg" width="256" height="256"><path fill="#1976D2" fill-opacity=".016" fill-rule="evenodd" d="M0 128.004v128.004l128.25-.254 128.25-.254.254-127.75L257.008 0H0v128.004m.485.496c0 70.4.119 99.053.265 63.672.146-35.38.146-92.98 0-128C.604 29.153.485 58.1.485 128.5"/><path fill="#1976D2" fill-opacity=".287" fill-rule="evenodd" d="M72.858 14.349c-7.053 3.939-9.012 5.593-8.192 6.919.375.607.159.742-.519.323-.672-.415-1.448.046-1.842 1.096-.374.997-2.621 3.658-4.993 5.913C54.911 30.883 53 33.626 53 34.791c0 1.15-.45 2.369-1 2.709-.55.34-1 2.166-1 4.059 0 1.893.45 3.441 1 3.441s1 .675 1 1.5c0 1.873-1.944 1.926-4.527.125-2.447-1.706-10.204-2.578-13.223-1.487-2.013.727-2.25 1.484-2.25 7.187 0 5.496.414 6.946 3 10.516 1.65 2.278 3 4.511 3 4.963 0 1.377 5.335 6.006 8.143 7.067 1.453.549 3.591.75 4.75.447 1.159-.303 2.107-.338 2.107-.077 0 1.409-7.349 14.223-8.046 14.03-.455-.126-.767.558-.695 1.519.166 2.208-9.979 14.746-18.644 23.043-3.638 3.483-6.615 6.746-6.615 7.25 0 .504-1.043.917-2.318.917-3.509 0-9.938 6.149-9.521 9.104.221 1.565.909 2.303 1.981 2.127 1.044-.171 1.59.375 1.5 1.5-.098 1.22.688 1.865 2.535 2.078 1.472.171 3.215.958 3.872 1.75.658.793 2.759 1.441 4.67 1.441 1.91 0 5.969.725 9.019 1.612 3.374.981 7.643 1.438 10.904 1.168 4.745-.394 5.358-.228 5.358 1.447 0 1.04-.399 1.644-.887 1.343-.487-.301-1.471.156-2.185 1.017-1.062 1.279-1.063 1.712-.007 2.364.91.563.965 1.001.186 1.483-.609.376-1.552.409-2.096.073-.566-.35-.735.05-.395.935.392 1.021-.206 1.853-1.761 2.451-2.069.797-2.142.993-.605 1.614.982.397 1.75 1.757 1.75 3.1 0 1.366.591 2.393 1.378 2.393 2.526 0 4.149 2.926 2.812 5.068-1.637 2.62-1.492 4.932.31 4.932 2.69 0 1.587 2.874-2.899 7.556-4.508 4.705-5.711 8.332-4.808 14.49.414 2.817 7.885 11.954 9.775 11.954.543 0 1.711.845 2.596 1.879.885 1.033 2.146 2.058 2.803 2.277.922.307.918 1.003-.019 3.059-1.093 2.399-.899 3.059 1.965 6.675 1.817 2.294 3.752 3.792 4.519 3.498.751-.288 2.302.834 3.523 2.548 1.681 2.362 2.94 3.064 5.491 3.064 1.82 0 3.869-.675 4.554-1.5s2.032-1.5 2.994-1.5c.961 0 2.811-1.551 4.109-3.446l2.362-3.446 2.84 3.446L89.146 225l37.177.173c20.447.095 34.252.444 30.677.776l-6.5.604 4.5.782c2.475.43 8.775.643 14 .473 7.627-.247 9.505-.604 9.524-1.808.015-.955.742-1.357 2-1.107 1.087.216 3.888.429 6.226.474 2.738.051 4.25.534 4.25 1.357 0 .893 1.8 1.276 6 1.276 5.667 0 8.078-1.31 4.25-2.311-.963-.251-.175-.524 1.75-.606 4.592-.196 8-3.09 8-6.793 0-1.59-.521-3.411-1.158-4.048-1.276-1.276-2.193-25.242-.965-25.242.397 0 1.231.508 1.851 1.128 1.749 1.749 9.855 1.209 12.217-.813 1.13-.968 2.055-2.132 2.055-2.587 0-1.683-6.646-7.601-9.279-8.262-3.251-.816-3.341-1.408-.721-4.739 1.1-1.398 2-2.979 2-3.512 0-2.167-3.477-3.607-8.837-3.659l-5.663-.056.164-3.406c.091-1.873.617-4.348 1.17-5.5 1.137-2.37 4.032-15.548 4.414-20.094.242-2.881.463-3.012 5.554-3.304 6.383-.366 7.17-1.674 3.904-6.488-2.182-3.215-4.066-7.581-7.639-17.708-1.838-5.208-1.769-6.304.433-6.931 5.391-1.534 8.793-8.55 4.75-9.795-3.004-.926-9.376-8.953-9.897-12.468-.269-1.818-1.134-3.806-1.921-4.416-.827-.641-1.432-2.834-1.432-5.191 0-2.245-.45-4.359-1-4.699-.55-.34-1-1.661-1-2.937 0-1.275-.675-2.878-1.5-3.563s-1.5-1.682-1.5-2.217c0-.535-2.037-4.008-4.527-7.719-5.276-7.864-10.671-12.59-18.291-16.022-1.275-.575-3.793-2.169-5.595-3.543-1.802-1.375-3.741-2.499-4.309-2.499-.568 0-1.593-.675-2.278-1.5s-2.492-1.5-4.015-1.5c-1.541 0-3.027-.666-3.347-1.5-.472-1.231-2.995-1.5-14.048-1.5-12.025 0-16.986.868-13.346 2.336.691.278-2.457.542-6.994.585-5.005.048-8.25-.323-8.25-.943 0-2.13-8.275-9.978-10.52-9.978-1.246 0-2.525-.675-2.842-1.5-.83-2.164-2.964-1.846-5.464.814-1.57 1.672-2.174 3.57-2.174 6.834 0 2.485.317 4.836.704 5.223 1.301 1.301 1.34 5.347.062 6.404-1.859 1.536-8.434 2.571-9.135 1.437-.329-.533.755-1.239 2.409-1.57 1.654-.331 3.27-1.287 3.591-2.124.809-2.106-.472-6.734-1.66-6-.559.346-.971-.927-.971-2.999 0-4.049-3.484-9.576-5.938-9.42-.859.055-4.101 1.518-7.204 3.25m5.955-.666c.721.289 1.584.253 1.916-.079.332-.332-.258-.568-1.312-.525-1.165.048-1.402.285-.604.604m-4.953 5.382c-4.275 2.169-9.145 6.533-10.735 9.619-1.449 2.813-1.425 2.983.418 2.983.904 0 1.323-.574 1.011-1.386-.292-.762-.105-1.122.415-.8.52.321 1.609-.697 2.419-2.264C69.041 24.02 75.71 19 78.304 19c.933 0 1.696-.45 1.696-1 0-1.41-1.919-1.077-6.14 1.065m25.307-.277c.586 1.387 9.833 9.5 9.833 8.627C109 26.29 100.819 18 99.708 18c-.481 0-.725.355-.541.788m-22.424 7.268c-3.799 3.136-6.324 6.696-5.403 7.618.802.802 6.66-3.915 6.66-5.362 0-.722.675-1.312 1.5-1.312s1.5-.73 1.5-1.622c0-1.397.232-1.432 1.663-.25 1.425 1.176 1.592 1.158 1.167-.128-.837-2.533-3.158-2.187-7.087 1.056m55.349 1.028c-8.194 1.061-16.426 3.654-20.605 6.489-1.804 1.225-4.147 2.502-5.205 2.838-1.059.336-4.368 2.851-7.354 5.59-2.985 2.738-4.641 4.71-3.678 4.382 2.425-.827 2.187.934-.58 4.29-4.852 5.888-4.029 8.143 1.528 4.186C98.892 52.941 111.323 49 114.679 49c.724 0 3.106 1.618 5.296 3.596l3.98 3.596 1.119-2.846c.616-1.565 2.222-5.262 3.57-8.215 1.348-2.953 2.277-5.544 2.064-5.757-.213-.213-2.372.958-4.798 2.601-5.834 3.954-9.287 3.903-13.112-.191-2.113-2.262-2.602-3.338-1.651-3.627.744-.226 2.253-1.187 3.353-2.134C116.305 34.469 126.881 31 129.816 31c.651 0 1.184.648 1.184 1.441 0 2.94 1.785 2.354 6.043-1.984 2.405-2.452 3.717-4.4 2.915-4.33-.802.07-4.342.5-7.866.957m-33.549.847c-.74 1.197 1.141 2.382 2.473 1.559 1.119-.691.384-2.49-1.016-2.49-.485 0-1.141.419-1.457.931m51.154 1.121c-.394 1.506-1.088 1.96-2.377 1.554-1.081-.34-4.054.722-7.32 2.615-3.812 2.209-4.963 3.301-3.75 3.556.962.203 3.169-.338 4.904-1.204 1.734-.865 3.765-1.573 4.513-1.573.748 0 2.251-.556 3.339-1.236 1.635-1.021 2.459-.924 4.737.555 1.516.984 4.107 2.401 5.757 3.148 5.093 2.306 7.533 5.864 9.628 14.041 1.087 4.246 1.841 7.781 1.675 7.856-4.792 2.153-6.481 5.19-2.459 4.421 1.651-.316 3.127.091 4.029 1.108 2.471 2.789 5.624 9.08 5.706 11.387.043 1.221.282 1.729.53 1.13.939-2.268-2.585-19.412-5.592-27.21-3.236-8.39-4.26-9.553-14.517-16.476-2.2-1.485-4.956-3.398-6.123-4.25-1.975-1.441-2.163-1.4-2.68.578m-68.884-.369c.721.289 1.584.253 1.916-.079.332-.332-.258-.568-1.312-.525-1.165.048-1.402.285-.604.604m4.187.376c0 .582.45.781 1 .441s1-.816 1-1.059S86.55 28 86 28s-1 .477-1 1.059m15.874 3.963C92.392 35.407 73 49.231 73 52.893c0 1.945 3.841 1.185 4.499-.891.708-2.229 6.672-6.61 13.501-9.917 2.475-1.198 5.908-3.17 7.629-4.382 1.722-1.212 3.945-2.686 4.942-3.275 2.396-1.418.625-2.34-2.697-1.406m64.126.896c0 .506 1.554 1.879 3.454 3.053 4.127 2.551 9.867 10.164 11.331 15.029.579 1.925 1.353 5.709 1.719 8.409.366 2.699 1.079 5.994 1.583 7.32l.917 2.413 2.633-2.071c1.448-1.139 3.194-2.071 3.879-2.071 2.101 0 6.727 7.003 7.729 11.699.521 2.443 1.172 4.217 1.447 3.942.275-.275-.246-3.794-1.159-7.821-1.786-7.879-6.615-18.439-11.155-24.391C184.318 45.417 172.464 36 170.473 36c-.675 0-1.788-.675-2.473-1.5-1.39-1.675-3-1.987-3-.582M74.548 38.25c-.419.962-.419 2.538 0 3.5.725 1.667.781 1.667 1.18 0 .23-.962.23-2.538 0-3.5-.399-1.667-.455-1.667-1.18 0m57.598 8.761c-1.704 4.889-1.515 19.633.261 20.315.894.343 1.856-.547 2.643-2.446 1.096-2.647 7.108-6.88 9.771-6.88.495 0 2.562 1.128 4.592 2.506 2.369 1.607 4.483 2.307 5.896 1.952 1.7-.426 2.615.144 4.004 2.495.99 1.676 2.225 3.047 2.744 3.047 1.211 0 1.213.017-.557-5-.825-2.338-1.5-5.743-1.5-7.567 0-4.376-1.854-5.414-2.641-1.478-.794 3.972-1.965 4.649-3.401 1.966-.91-1.699-1.747-2.013-4.112-1.54-4.233.846-8.905-1.448-13.008-6.388l-3.546-4.269-1.146 3.287m46.854-.62c0 .35.44 1.418.977 2.373.537.955 1.455 3.649 2.039 5.986.798 3.195 1.548 4.25 3.023 4.25 2.609 0 2.477-2.222-.403-6.785-2.307-3.654-5.636-7.094-5.636-5.824M39 50c0 .55.9 1 2 1s2-.45 2-1-.9-1-2-1-2 .45-2 1m30.5 6c-1.134 1.253-1.354 2-.589 2 2.101 0 5.173-2.056 4.558-3.05-.89-1.44-1.975-1.153-3.969 1.05M188 60.882c0 .55.45 1.278 1 1.618.55.34 1 .168 1-.382s-.45-1.278-1-1.618c-.55-.34-1-.168-1 .382M56.75 64.728c-4.152.435-4.797 1.641-1.75 3.272 1.596.854 2 .76 2-.465 0-.844.648-1.535 1.441-1.535s1.719-.45 2.059-1c.34-.55.479-.924.309-.832-.17.093-1.996.345-4.059.56m-1 15.688C54.237 82.805 53 85.101 53 85.519c0 .418-1.376 2.996-3.058 5.729-1.682 2.734-2.848 5.18-2.591 5.436.409.409 3.436-4.475 10.052-16.218 1.046-1.858 2.621-3.571 3.5-3.806 1.143-.306 1.029-.451-.403-.507-1.317-.053-2.939 1.403-4.75 4.263m8.823-3.465c-1.694.615-1.728.776-.282 1.33.905.348 1.929.171 2.277-.391.893-1.444.241-1.751-1.995-.939m53.991.756c-.542 1.425-.428 1.54.56.56.684-.679.991-1.486.683-1.793-.308-.308-.867.247-1.243 1.233m3.425 3.543c-2.697 4.423-2.518 5.02 1.261 4.224 4.508-.95 5.308-1.954 3.944-4.947-1.533-3.364-2.822-3.185-5.205.723M180.5 89c-.34.55-.141 1 .441 1S182 89.55 182 89s-.198-1-.441-1-.719.45-1.059 1m-62.67 1.25c-.853.688-2.927 3.275-4.607 5.75-1.681 2.475-5.343 7.181-8.139 10.457-2.796 3.276-5.084 6.282-5.084 6.68 0 .398 1.463.273 3.25-.278 7.034-2.167 23.66-.781 32.101 2.675 1.462.598 1.776.364 1.492-1.113-.486-2.523-4.467-4.388-9.402-4.406-4.105-.015-8.57-2.199-6.77-3.312 1.194-.738 13.416 1.738 16.362 3.315 2.997 1.604 3.697.387 1.616-2.808-.971-1.491-3.4-6.197-5.399-10.46L129.617 89h-5.118c-2.814 0-5.815.563-6.669 1.25m58.256 13.308c-2.247 4.707-4.086 8.962-4.086 9.455 0 .493 1.688 1.171 3.75 1.507 2.063.337 4.65.981 5.75 1.432 3.462 1.421-3.193 2.561-6.972 1.194-4.108-1.485-4.288-1.465-5.389.604-.842 1.581-.258 1.769 6.062 1.946 5.291.149 8.185.819 11.878 2.75 2.687 1.405 5.342 2.554 5.903 2.554 1.588 0 1.2-3.71-.814-7.79-1.007-2.04-2.92-7.401-4.25-11.912-1.843-6.252-2.964-8.451-4.715-9.25-1.263-.576-2.462-1.048-2.664-1.048-.202 0-2.206 3.851-4.453 8.558m32.553-7.864c-.953.953-.772 3.306.254 3.306 1.227 0 2.212-2.817 1.203-3.441-.449-.277-1.105-.217-1.457.135m12.861 6.472c-1.65 1.603-4.542 3.883-6.427 5.066-2.258 1.417-2.94 2.295-2 2.574.785.233 1.985 1.127 2.667 1.986.681.859 1.533 1.268 1.892.909s.049-1.381-.69-2.271c-1.155-1.391-1.009-1.871 1.038-3.415 2.072-1.562 2.569-1.609 3.82-.358.791.791 1.692 1.184 2.002.874.311-.31.032-1.097-.619-1.748s-1.169-1.881-1.151-2.733c.027-1.304.242-1.273 1.36.2 1.823 2.402 2.608 2.194 2.608-.691 0-3.571-1.129-3.669-4.5-.393m3.5 8.311c0 .812-1.148 2.229-2.551 3.148-2.751 1.803-5.765 6.726-4.742 7.748 1.243 1.243 2.358.577 3.553-2.123 1.444-3.263 3.679-5.75 5.169-5.75.981 0 1.134-.744.721-3.5-.238-1.585-2.15-1.161-2.15.477m4.583 1.389c-.431.697-.513 1.537-.183 1.867.895.895 1.871-.421 1.387-1.871-.338-1.016-.574-1.016-1.204.004m-89.612 2.158c-1.209.752-1.248 1.274-.221 2.932 1.828 2.95 1.574 6.038-.5 6.076-.963.017-2.513.611-3.445 1.32-1.566 1.19-1.509 1.487.75 3.924 1.345 1.45 2.445 2.881 2.445 3.18 0 .299-4.33.544-9.622.544-8.62 0-9.487.163-8.323 1.566 2.597 3.13 7.209 4.63 14.7 4.782l7.475.152 3.817-4.429c3.375-3.918 4.009-4.269 5.484-3.046 1.884 1.564 9.469 2.269 9.469.88 0-1.525-4.012-5.016-5.036-4.382-.53.327-.964 1.468-.964 2.536 0 4.435-2.289 2.008-10.5-11.134-3.754-6.008-3.752-6.006-5.529-4.901m-47.857 5.527c-4.875 3.834-4.705 4.719.232 1.201 1.735-1.237 3.566-2.25 4.071-2.25.504-.001 1.104-.564 1.333-1.252.679-2.037-.979-1.36-5.636 2.301m5.081 2.949c.02 1.65.244 2.204.498 1.231.254-.973.237-2.323-.037-3-.274-.677-.481.119-.461 1.769m13.005.7c-.66.66-1.214 2.798-1.23 4.75-.027 3.139-.159 3.318-1.137 1.55-1.736-3.138-5.06-6.5-6.427-6.5-.952 0-1.007.883-.232 3.75.556 2.063 1.42 4.178 1.919 4.7.499.522.907 1.75.907 2.728 0 2.936 6.63 16.144 9.41 18.746 3.42 3.202 3.272 4.254-.918 6.511-3.185 1.714-3.369 2.043-2 3.556 1.376 1.521 8.35 5.015 12.821 6.423.998.315 1.58.95 1.294 1.412-.285.462.024.904.687.98.663.077 4.356.898 8.206 1.824 10.168 2.445 28.248 2.427 36-.037 7.573-2.407 8.295-3.057 6.092-5.491-1.693-1.871-1.663-2.009.754-3.593 2.335-1.53 2.693-1.529 5.035.005 2.849 1.867 6.068 1.281 7.154-1.302.396-.942.859-4.007 1.03-6.812.294-4.82.188-5.075-1.943-4.668-1.24.237-4.924-.33-8.188-1.259-4.852-1.381-6.898-2.696-11.218-7.208-4.497-4.697-5.94-5.592-9.696-6.016-3.969-.447-4.837-.133-8.646 3.127-4.08 3.492-4.517 3.624-12.016 3.624-9.51 0-17.603-2.72-21.353-7.176-2.352-2.795-2.519-3.578-1.912-8.944.608-5.371.498-5.88-1.264-5.88-1.061 0-2.469.54-3.129 1.2m-46.773 3.565c-1.7 1.165-2.446 4.105-1.232 4.856 1.206.745 3.805-2.201 3.805-4.312 0-1.455-.949-1.656-2.573-.544M55 130.962c0 .595-1.137 1.599-2.526 2.232-2.498 1.138-2.865 2.842-.764 3.543 1.506.502 5.606-5.423 4.308-6.226-.56-.346-1.018-.143-1.018.451m126.166.705c-.652 1.166-.382 2.574.899 4.68 2.3 3.782 1.504 5.256-1.703 3.154-1.351-.885-3.314-1.333-4.37-.999-1.054.335-2.868.1-4.03-.522-1.953-1.045-2.027-.969-.974.998 2.338 4.369 11.196 7.946 16.426 6.633 1.723-.432 2.628-1.552 3.122-3.86.382-1.788 1.172-3.842 1.754-4.564.842-1.043.521-1.178-1.562-.655-2.31.58-2.8.231-4.124-2.937-1.603-3.836-3.912-4.655-5.438-1.928M199.5 141c-.34.55-.174 1 .368 1s1.191.787 1.443 1.75c.281 1.077.502.692.573-1 .115-2.722-1.191-3.681-2.384-1.75M52 145.059c0 .582.45.781 1 .441s1-.816 1-1.059-.45-.441-1-.441-1 .477-1 1.059m-6.828 8.037c-1.117 1.789-1.049 2.383.466 4.057 1.76 1.945 1.782 1.943 2.564-.17.443-1.198.337-2.976-.242-4.057-1.27-2.374-1.197-2.378-2.788.17m97.828.452c0 2.03 4.698 6.338 7.746 7.103 2.636.662 7.672-1.166 6.854-2.489-.281-.455-1.819-.637-3.415-.402-2.192.321-3.767-.332-6.426-2.667-3.984-3.498-4.759-3.749-4.759-1.545m-83.076 3.202L57.5 159.5l2.75-2.424c2.57-2.266 3.209-3.076 2.424-3.076-.179 0-1.416 1.238-2.75 2.75m131.588 10.23c-1.015 1.642 4.064 6.385 9.334 8.716l5.491 2.428 3.03-3.03c3.446-3.446 2.945-5.183-.79-2.736-1.929 1.263-2.664 1.35-3.281.385-.438-.684-1.52-1.808-2.405-2.498-2.26-1.764-10.793-4.212-11.379-3.265m-6.953 8.924c-1.096 1.774 5.438 7.243 11.485 9.613 7.62 2.986 8.956 3.071 8.956.565 0-1.472-1.505-2.42-6.462-4.069-3.554-1.183-8.041-3.222-9.971-4.532-1.931-1.31-3.734-2.02-4.008-1.577M121 178.8c0 1.423 2.35 3.2 4.231 3.2 2.985 0 3.387 3.025.675 5.074-1.887 1.426-2.144 2.081-1.193 3.035.952.955 1.424.662 2.193-1.361.538-1.417 1.793-2.779 2.787-3.026 3.575-.888 12.033-.195 13.611 1.116 1.382 1.147 1.985.964 4.228-1.279 3.398-3.398 2.812-4.797-2.606-6.229-5.029-1.328-23.926-1.747-23.926-.53m-74.595 2.45L44.5 183.5l2.25-1.905c2.114-1.79 2.705-2.595 1.905-2.595-.19 0-1.202 1.012-2.25 2.25m103.521 6.905c-6.133 6.703-6.777 8.248-4.491 10.773 1.388 1.534 1.435 2.299.337 5.565-1.04 3.096-2.505 4.521-8.022 7.806-5.242 3.121-6.75 4.538-6.75 6.341 0 3.156.99 3.296 25.355 3.6l20.855.26 1.957-4.951c2.591-6.554 8.102-13.934 12.379-16.578 3.179-1.964 4.709-4.971 2.531-4.971-.508 0-2.32-1.175-4.026-2.611-1.926-1.62-6.41-3.48-11.827-4.905a1255.438 1255.438 0 0 1-15.798-4.277l-7.075-1.982-5.425 5.93M211 182.896c-2.198.612-2.278.781-.668 1.4 2.918 1.122 4.668.823 4.668-.796 0-1.62-.229-1.655-4-.604m-58.415 7.099c-4.712 5.998-5.205 8.654-1.38 7.44 6.203-1.969 19.356-.784 25.318 2.28 4.287 2.204 8.668 3.185 9.823 2.2.635-.541 2.048-1.602 3.141-2.359 1.982-1.372 1.982-1.38 0-3.575-2.448-2.711-8.813-5.672-13.487-6.274-5.83-.75-17-3.938-17-4.851 0-2.067-2.032-.44-6.415 5.139m38.915-1.58c1.1.869 2.967 2.484 4.149 3.59 1.241 1.161 2.825 1.75 3.75 1.395 2.726-1.046 1.773-2.859-2.149-4.088a722.956 722.956 0 0 1-5.75-1.825l-2-.65 2 1.578M44 192.872c0 .663 1.83 3.101 4.067 5.417l4.067 4.211-3.678-5c-4.552-6.189-4.456-6.089-4.456-4.628m62.75.79c.688.278 1.813.278 2.5 0 .688-.277.125-.504-1.25-.504s-1.937.227-1.25.504m7.5.044c-1.237.238-2.25.815-2.25 1.282 0 2.213 1.393 4.012 3.107 4.012 1.437 0 1.893-.723 1.893-3 0-1.65-.112-2.939-.25-2.864-.138.075-1.263.331-2.5.57m10.244.303c-1.05 1.7.536 4.991 2.407 4.991 2.733 0 3.135-1.015 1.432-3.615-1.68-2.564-2.846-2.982-3.839-1.376M139 200.032c0 .568.99 1.399 2.2 1.846 2.16.799 2.147.848-.75 2.695-4.971 3.169-5.64 5.21-1.149 3.503 3.461-1.316 5.102-4.455 3.699-7.076-1.111-2.077-4-2.776-4-.968m-9.329 3.434c-2.76 2.438-3.738 4.033-3.5 5.709.273 1.928.927 2.325 3.829 2.325 3.051 0 3.54-.343 3.809-2.677.171-1.472.958-3.215 1.75-3.872 2.041-1.693 1.835-4.96-.309-4.909-.963.023-3.473 1.564-5.579 3.424m-30.171.525c-3.751 2.131-5.081 3.505-5.324 5.499-.281 2.312-.085 2.527 1.5 1.647 2.423-1.345 7.026-5.742 7.5-7.164.208-.624 1.941-1.502 3.851-1.951 3.433-.808 3.438-.818.473-.845-1.65-.015-5.25 1.251-8 2.814m92.81-.496c-1.174.823-3.546 3.277-5.271 5.456-3.063 3.867-3.099 4.032-1.535 7.058 2.998 5.797 4.95 6.991 11.431 6.991 3.264 0 7.083-.437 8.486-.97 2.287-.87 2.445-1.253 1.518-3.69-.568-1.495-2.822-4.659-5.009-7.031-2.186-2.372-4.487-5.437-5.113-6.811-1.329-2.918-1.665-2.993-4.507-1.003m-90.324 5.041c-4.235 4.335-4.382 4.67-2.626 5.969 1.738 1.286 1.616 1.478-1.872 2.936-2.053.857-4.352 1.559-5.11 1.559S91 219.643 91 220.428c0 1.923 9.052 3.014 17.505 2.108 4.472-.479 6.495-1.119 6.495-2.057 0-.748-.456-1.643-1.014-1.988-1.937-1.197-5.106-8.665-4.797-11.302.497-4.239-2.249-3.725-7.203 1.347M92.5 227c.34.55 4.641 1 9.559 1 5.294 0 8.941-.408 8.941-1 0-.597-3.853-1-9.559-1-6.118 0-9.337.36-8.941 1"/><path fill="#1976D2" fill-opacity=".48" fill-rule="evenodd" d="M93.9 13.951c-.055.302-.019 4.212.081 8.69.112 5.02-.239 8.401-.916 8.819-.604.373-.839 1.097-.522 1.609.685 1.109-10.854 1.283-11.966.181-.417-.413.971-1.238 3.083-1.835 4.368-1.235 5.749-4.665 2.758-6.852-1.048-.766-1.491-1.93-1.112-2.918.832-2.167-.172-4.645-1.882-4.645-.773 0-1.123-.621-.809-1.438.425-1.109-.366-1.426-3.446-1.384-2.98.041-4.117.514-4.468 1.857-.406 1.552.034 1.734 3.164 1.313 3.434-.462 3.527-.402 1.694 1.082-1.068.863-2.348 1.57-2.846 1.57-1.908 0-6.928 4.381-9.268 8.088C65.465 31.224 65 33.266 65 38.831c0 3.779.499 8.302 1.109 10.051.834 2.394.804 3.913-.122 6.149-1.363 3.29-3.754 3.925-4.591 1.219-.298-.962-.985-2.573-1.526-3.578-.542-1.006-1.376-5.281-1.855-9.5-.832-7.337-.768-7.759 1.471-9.672 1.288-1.1 2.621-2.965 2.962-4.145.341-1.18 2.852-4.233 5.579-6.784 3.653-3.416 4.569-4.789 3.477-5.208-1.703-.653-10.127 7.514-11.515 11.165-.497 1.308-1.885 2.461-3.185 2.645-1.87.265-2.452 1.175-3.088 4.827-.987 5.663-1.006 6.851-.164 10.25.562 2.267.353 2.744-1.185 2.715-1.027-.02-2.992-.679-4.367-1.465s-5.087-1.445-8.25-1.465L34 46v6.531c0 4.884.379 6.677 1.5 7.107.825.317 1.5 1.405 1.5 2.418 0 1.014 2.215 4.19 4.923 7.058 4.237 4.49 5.415 5.197 8.46 5.083 4.446-.167 5.292 1.144 2.966 4.597-1.002 1.488-2.978 4.956-4.391 7.706C43.335 97.45 25.474 119 22.022 119c-.562 0-1.022.675-1.022 1.5s-.689 1.5-1.531 1.5c-.843 0-1.791.675-2.107 1.5-.317.825-1.653 1.5-2.969 1.5-1.46 0-2.393.585-2.393 1.5 0 3.745 6.739.156 16.616-8.849 7.364-6.714 18.129-20.768 22.492-29.364 5.968-11.758 6.945-12.743 12.761-12.863 2.822-.059 5.131.106 5.131.367 0 .26-.88 1.897-1.956 3.637-2.394 3.875-3.7 11.049-2.181 11.987.637.394 1.32-.477 1.667-2.124.324-1.535 1.01-3.466 1.524-4.291.514-.825 1.918-3.479 3.119-5.897 1.268-2.55 4-5.676 6.506-7.442C80.056 69.986 82 68.252 82 67.807c0-1.135-.108-1.105-6.468 1.807-4.717 2.16-6.761 2.538-11.765 2.176-5.473-.396-6.389-.801-9.499-4.194-3.731-4.072-5.416-4.11-3.256-.074.938 1.752 1.03 2.836.302 3.564-1.298 1.298-6.92-3.624-7.525-6.586-.224-1.1-.848-1.919-1.386-1.821-.538.099-1.075-.981-1.192-2.399-.117-1.418-.622-3.073-1.123-3.679-.5-.605-1.224-2.788-1.61-4.851-.607-3.248-.451-3.745 1.161-3.715 2.11.041 7.539 2.875 5.611 2.93-4.356.123 2.504 10.546 8.617 13.089 4.677 1.947 21.913-4.242 28.932-10.389 6.977-6.111 23.143-17.741 28.78-20.707 3.101-1.631 7.951-3.589 10.779-4.351 6.581-1.774 24.517-4.066 25.344-3.238.347.347-.7.631-2.327.631-2.183 0-4.11 1.174-7.354 4.479-2.418 2.464-4.18 4.696-3.915 4.961.265.264 2.487-.849 4.938-2.475 2.451-1.626 5.694-2.958 7.206-2.961 2.082-.003 2.75-.49 2.75-2.004 0-1.1.168-2 .373-2 1.325 0 9.627 4.25 9.627 4.928 0 .459 1.688 2.106 3.75 3.66 2.485 1.873 3.244 2.166 2.25.869-.825-1.076-1.95-2.288-2.5-2.692-.569-.418-.269-.741.696-.75 2.842-.025 13.421 6.736 19.844 12.683 7.296 6.754 13.789 19.247 16.53 31.802.961 4.4 2.623 9.35 3.693 11 2.628 4.05 6.488 6.81 8.464 6.051 1.315-.504.833-1.423-2.553-4.874-2.296-2.339-4.181-5.136-4.189-6.215-.012-1.456-.234-1.618-.861-.628-1.136 1.791-2.101-.706-2.19-5.666-.138-7.662-6.905-22.474-13.88-30.38C184.447 41.699 165.552 29 163.076 29c-.457 0-1.391-.675-2.076-1.5s-2.427-1.506-3.872-1.514c-1.446-.007-3.729-.308-5.074-.668-2.266-.606-2.303-.71-.5-1.416 1.07-.419-3.454-.761-10.054-.761s-11.119.344-10.043.765c2.382.932-4.844 2.094-13.017 2.094-5.107 0-5.473-.193-11.146-5.866-4.594-4.594-6.67-5.959-9.58-6.299-2.043-.238-3.759-.186-3.814.116m3.634 3.995c-.83 1.343.204 3.054 1.846 3.054.694 0 3.354 2.004 5.911 4.454 5.644 5.408 7.039 4.539 1.9-1.184-4.527-5.041-8.744-7.803-9.657-6.324m-21.206 7.831c-4.579 3.93-7.323 9.088-7.302 13.723l.018 4 1.923-4c3.602-7.491 8.25-11.107 13.045-10.148 3.524.705 3.732-.137.915-3.717-2.613-3.323-4.601-3.29-8.599.142M97 27.93c0 1.557.638 2.07 2.573 2.07 3.283 0 2.991-3.345-.333-3.82-1.701-.242-2.24.179-2.24 1.75m3 4.998c-9.609 3.712-15.215 7.359-23.448 15.253C71.848 52.691 68 56.745 68 57.19c0 1.33 3.475.918 5.559-.658 1.067-.808 2.616-1.487 3.441-1.509.825-.022 6-3.899 11.5-8.615 5.5-4.717 11.605-9.405 13.567-10.419 1.962-1.013 4.154-2.551 4.872-3.416 1.11-1.337 1.025-1.559-.567-1.478-1.029.053-3.897.878-6.372 1.833m-26 4.243c0 .644-.782 2.035-1.737 3.091-1.653 1.826-1.643 1.987.21 3.342 2.844 2.079 3.957 1.247 4.594-3.435.486-3.571.307-4.169-1.25-4.169-.999 0-1.817.527-1.817 1.171m6.667.496c-1.215 1.214-.691 2.28.833 1.695.825-.317 1.5-.978 1.5-1.469 0-1.048-1.378-1.182-2.333-.226m88.039 1.465c2.963 3.228 7.907 15.856 9.343 23.868 2.208 12.311.855 23.014-4.33 34.25-3.659 7.932-5.201 6.522-6.557-6-.641-5.913-1.164-13.338-1.163-16.5 0-3.168-.448-5.75-.999-5.75-.631 0-1.046 7.666-1.124 20.75-.169 28.294-.626 33.933-2.684 33.083-.443-.183-5.855-5.858-12.024-12.611-16.437-17.991-19.579-25.979-19.634-49.911-.028-12.489-.249-14.781-1.242-12.891-.665 1.265-1.735 5.4-2.378 9.19-.643 3.789-1.493 8.69-1.889 10.89-.847 4.707-7.997 18.666-14.612 28.525-5.357 7.985-17.177 19.54-22.973 22.459-2.167 1.091-6.097 3.229-8.734 4.75-5.233 3.02-5.706 3.178-5.706 1.918 0-.825 3.855-4.655 16.845-16.736 3.489-3.246 6.819-6.787 7.399-7.871 1.037-1.939 1.009-1.941-1.759-.127-5.545 3.633-9.07 5.358-14.485 7.086a594.076 594.076 0 0 0-11.285 3.761c-6.205 2.151-11.786 2.02-19.138-.448-4.586-1.539-5.948-3.817-2.283-3.817 1.354 0 3.021-.675 3.706-1.5s1.781-1.5 2.435-1.5c3.829 0 19.747-10.09 22.424-14.213.926-1.427.822-1.607-.624-1.08-.954.348-3.036 1.706-4.625 3.016-1.59 1.311-3.49 2.153-4.223 1.872-.733-.281-1.907.306-2.61 1.306-.702.999-3.977 3.041-7.277 4.536-9.737 4.413-14.611 6.934-15.178 7.851-1.683 2.724 9.872 9.712 16.059 9.712 2.063 0 4.621.466 5.685 1.035 2.771 1.483 2.449 3.965-.514 3.965-1.347 0-3.71 1.18-5.25 2.621-5.071 4.745-7.349 5.922-8.344 4.311-.694-1.123-1.564-.737-4.292 1.907-3.203 3.105-8.331 5.082-13.322 5.137-1.937.022-2.039-.224-1-2.425.635-1.346 1.988-2.666 3.006-2.932 2.065-.54 1.343-2.619-.909-2.619-.793 0-1.441-.909-1.441-2.019 0-1.694-.442-1.914-2.75-1.366-1.512.36-3.46 1.268-4.329 2.019-.868.751-2.106 1.366-2.75 1.366-.644 0-1.171.488-1.171 1.083 0 .596.563.821 1.25.501.688-.321 2.037-.86 3-1.2.962-.339 1.75-1.031 1.75-1.536 0-1.832 3.564 1.019 3.711 2.969.117 1.548-.806 2.221-4.224 3.082-7.809 1.966-10.821 1.502-12.327-1.899-1.627-3.677-4.16-3.982-4.16-.5 0 1.556.567 2.5 1.5 2.5.825 0 1.5.623 1.5 1.383 0 1.682 3.056 2.585 8.809 2.603 2.615.009 4.066.407 3.691 1.014-.616.996 1.343 1.463 4.84 1.154 1.012-.089 3.383.57 5.268 1.464 2.371 1.125 5.118 1.487 8.91 1.172 3.962-.329 5.482-.108 5.482.796 0 2.39-1.222 4.414-2.666 4.414-.841 0-1.152.485-.74 1.152.391.633-.121 1.76-1.139 2.505-2.835 2.073-2.308 7.884.947 10.444 2.963 2.332 3.277 4.091 1.056 5.934-1.168.969-1.259 1.545-.375 2.373.848.794 1.294.746 1.631-.176.689-1.88 3.261-4.234 4.607-4.217.649.009 1.854.467 2.679 1.019 1.298.869 1.239 1.203-.441 2.485-1.068.815-2.755 1.481-3.75 1.481-.995 0-1.809.626-1.809 1.391s-1.778 3.543-3.952 6.174c-2.173 2.63-3.746 5.115-3.494 5.523.252.408-.032.905-.631 1.104-.599.2-1.09 2.509-1.09 5.132 0 3.68.641 5.614 2.808 8.472 3.365 4.437 6.404 7.125 8.109 7.171.688.018 1.25.494 1.25 1.058 0 .563 1.125 1.452 2.5 1.975 2.851 1.084 3.157 2.486 1.013 4.63-1.316 1.316-1.237 1.825.688 4.427 1.195 1.618 3.412 3.489 4.925 4.159 1.513.67 3.213 2.233 3.778 3.473.566 1.241 2.143 2.536 3.505 2.878 2.66.667 4.947-.183 4.114-1.529-.28-.454.725-1.123 2.234-1.488s4.18-2.326 5.935-4.357c3.113-3.601 3.23-3.643 4.669-1.693 4.716 6.389.046 5.791 46.738 5.984 42.556.175 48.731-.61 15.644-1.988-9.759-.407-17.743-1.092-17.743-1.524 0-.432-1.012-.534-2.25-.228-2.044.506-1.975.292.75-2.338 1.65-1.592 5.7-4.484 8.999-6.427 7.417-4.366 9.54-7.95 7.128-12.034-2.114-3.578-2.061-4.178.623-7.115a1194.78 1194.78 0 0 0 6.066-6.723l3.816-4.259 14.684 3.702c10.284 2.594 15.932 4.564 18.847 6.577 2.29 1.58 4.626 2.873 5.191 2.873 2.97 0 1.636 2.681-4.115 8.272-4.449 4.325-7.373 8.291-9.572 12.981-3.768 8.033-3.939 9.23-1.103 7.713 1.523-.815 2.43-.801 3.46.054.932.773 5.063 1.046 12.411.82 9.726-.3 11.269-.595 13.191-2.519 1.933-1.935 2.039-2.509.948-5.143-.676-1.631-1.355-6.726-1.509-11.322-.154-4.596-.627-10.26-1.052-12.588-.957-5.251.927-6.423 5.965-3.71 3.258 1.755 3.504 1.754 7.446-.024 4.688-2.114 5.121-3.637 1.576-5.534-1.375-.736-2.5-1.889-2.5-2.562 0-1.457-2.246-2.438-5.582-2.438-2.646 0-3.068-.95-1.235-2.783 2.195-2.195-.054-2.464-2.765-.331-1.478 1.163-3.415 2.11-4.303 2.105-4.084-.024-15.115-8.384-15.115-11.456 0-2.266 12.459 1.904 15.063 5.041.993 1.197 1.578 1.158 3.985-.263 2.255-1.333 3.117-1.421 4.297-.441 1.723 1.429 2.907.153 1.688-1.819-.602-.974-2.096-1.179-5.34-.734-3.635.498-5.005.223-7.099-1.424-2.576-2.026-3.51-4.895-1.594-4.895.55 0 1-.845 1-1.878s.618-3.395 1.372-5.25c.755-1.855 1.93-7.197 2.612-11.872.681-4.675 1.375-9 1.543-9.611.194-.709 2.097-.939 5.258-.636 5.465.525 7.302-.771 5.054-3.566-1.536-1.91-3.775-6.581-6.322-13.187-.955-2.475-2.136-5.534-2.626-6.797-1.538-3.964-1.039-6.196 1.609-7.203 1.375-.523 2.5-1.623 2.5-2.444 0-.916.579-1.271 1.5-.918 1.097.421 1.5-.125 1.5-2.031 0-3.355-2.715-3.486-3.967-.193-.505 1.328-1.878 2.719-3.051 3.092-2.498.793-2.433.845-3.658-2.943-1.384-4.283-3.46-4.584-2.71-.393 1.098 6.136 7.524 24.274 10.479 29.58 3.417 6.134 2.515 6.686-4.901 3-4.96-2.466-10.746-9.072-13.378-15.276-3.584-8.452-10.982-34.878-13.289-47.474-1.656-9.039-2.963-13.949-4.794-18-1.844-4.082-5.656-8.892-8.022-10.122l-2.209-1.149 2.206 2.403M69 47.122c0 1.774.247 1.918 1.5.878.825-.685 1.5-1.64 1.5-2.122 0-.483-.675-.878-1.5-.878-.862 0-1.5.902-1.5 2.122m-18.547 5.141c-.7 1.822 3.481 8.707 5.297 8.725 1.875.018 1.527-1.492-1.307-5.668-3.317-4.887-3.295-4.87-3.99-3.057m74.242 20.376c-.382.382-.695 1.494-.695 2.471 0 .976-.947 3.38-2.104 5.341-2.794 4.737-2.086 6.286 2.623 5.737l3.727-.436-.647-5.508c-.692-5.889-1.778-8.732-2.904-7.605m56.291 10.944c-.007 1.055-.275 2.891-.594 4.081-.42 1.568.021 2.487 1.599 3.331 2.929 1.568 3.13 1.128 1.699-3.719-1.402-4.748-2.684-6.498-2.704-3.693m-66.267 9.634c-1.387 2.366-5.266 7.579-8.62 11.584-3.355 4.005-6.099 7.671-6.099 8.148 0 .477-1.284 1.696-2.853 2.709a754.59 754.59 0 0 0-8.361 5.534c-3.03 2.031-8.496 4.657-12.147 5.837-6.214 2.007-6.639 2.335-6.639 5.115 0 7.923 11.349 35.895 17.756 43.762 7.425 9.118 11.035 11.488 22.11 14.52 5.022 1.375 6.605 1.483 7.5.512.624-.677.684-.999.134-.714-1.576.816-9.727-5.485-12.682-9.804-3.214-4.698-5.287-11.537-3.261-10.76.717.275 1.741 1.755 2.275 3.289 1.409 4.041 8.974 10.924 12.795 11.641 5.648 1.059 7.363-1.523 2.382-3.586-2.848-1.18-5.901-4.092-23.588-22.504-8.309-8.649-13.419-17.576-13.42-23.446-.001-3.439.005-3.434 2.709 1.991 4.731 9.494 15.083 17.564 25.103 19.568 4.015.803 4.044-.424.098-4.176-5.33-5.067-9.149-13.681-11.031-24.879-1.867-11.108-1.328-12.1 7.665-14.1 8.217-1.828 14.517-1.511 24.955 1.257 6.053 1.606 9.507 3.676 9.492 5.69-.009 1.292-4.616 3.595-7.191 3.595-2.669 0-2.19 1.587 1.211 4.008 1.656 1.18 2.75 2.568 2.43 3.085-.49.794-9.747.741-12.942-.075-4.674-1.192-6.025 1.937-1.98 4.587 3.312 2.17 13.32 4.219 17.565 3.596 3.284-.482 8.915-4.981 8.915-7.124 0-1.3 2.229-1.421 3.55-.194.522.485 3.32 1.095 6.216 1.354l5.266.473-2.391-3.105c-2.902-3.769-5.197-4.41-5.918-1.653-.295 1.126-.915 2.034-1.379 2.016-1.46-.054-14.104-20.846-19.441-31.968a1207.984 1207.984 0 0 0-3.865-8c-.524-1.053-2.692-1.587-7.272-1.793l-6.526-.293-2.521 4.303m60.593 11.017c-2.303 5.073-4.028 9.383-3.834 9.577.194.194 2.528.98 5.187 1.746l4.835 1.393-6-.524c-5.859-.511-6.04-.453-7.691 2.503-1.125 2.015-1.501 4.197-1.122 6.529.752 4.632 2.313 3.511 2.313-1.661v-4.086l7.516.569c6.034.456 8.505 1.177 12.528 3.652 5.914 3.639 6.912 2.734 4.446-4.028-2.258-6.195-4.048-11.67-5.526-16.904-1.345-4.765-4.109-8.003-6.825-7.995-1.096.003-3.026 3.061-5.827 9.229m48.767-2.651c.048 1.165.285 1.402.604.605.289-.722.253-1.585-.079-1.917-.332-.332-.568.258-.525 1.312m-96.318 7.351c2.893.468 6.408 1.602 7.811 2.521 1.402.919 3.085 1.49 3.739 1.269 2.398-.81-5.702-3.903-11.174-4.265l-5.637-.374 5.261.849m-57.511 8.097c-1.237.498-2.25 1.586-2.25 2.419 0 .832-1.575 3.135-3.5 5.118-3.316 3.414-4.46 6.72-2.702 7.807 1.335.825 2.83-.672 5.053-5.057 1.166-2.3 2.58-4.466 3.142-4.814 1.372-.848 4.264-6.521 3.283-6.441-.427.035-1.789.471-3.026.968m40.5 5.541c-1.513.821-2.75 2.193-2.75 3.049 0 1.186-.734.939-3.077-1.032-1.692-1.424-3.542-2.589-4.111-2.589-1.359 0-.13 6.776 1.762 9.715.784 1.218 1.426 2.864 1.426 3.657 0 2.589 5.672 14.079 7.956 16.117 4.171 3.721 4.361 5.206.887 6.939-1.733.865-4.206 1.572-5.497 1.572-3.492 0-2.901 2.464 1.652 6.882 4.767 4.626 7.552 5.429 27.911 8.042 13.398 1.719 16.079 1.789 24.324.631 9.389-1.319 16.767-3.687 16.767-5.382 0-.51-.681-1.493-1.512-2.183-1.151-.955-1.241-1.583-.378-2.623 1.318-1.587 3.89-1.83 3.89-.367 0 .55 1.565 1 3.477 1 4.362 0 6.071-2.458 6.959-10.011l.648-5.51-4.292.341c-8.193.65-17.078-4.07-21.338-11.337-.745-1.27-2.678-1.92-6.707-2.254-5.272-.437-5.87-.259-8.722 2.592-7.728 7.728-29.729 3.985-35.099-5.972-.543-1.006-.466-2.87.196-4.768 1.075-3.086.518-8.118-.891-8.041-.402.022-1.968.711-3.481 1.532m9.43 2.678c.176 1.237.77 2.25 1.32 2.25s1.144-1.013 1.32-2.25c.219-1.548-.192-2.25-1.32-2.25-1.128 0-1.539.702-1.32 2.25m78.543 4.45c1.516 2.314 1.819 2.439 2.121.87.194-1.007-.254-2.215-.996-2.685-2.49-1.578-2.907-.905-1.125 1.815m-144.627 1.121c-.536 1.001-2.914 2.661-5.285 3.687-2.371 1.027-4.986 2.417-5.811 3.088-.825.672-2.625 1.44-4 1.708-1.375.267.2.459 3.5.426 6.194-.061 9.619-1.451 12.728-5.166 1.876-2.242 2.358-5.564.807-5.564-.53 0-1.403.819-1.939 1.821m125.385 2.638-3.828 4.49-3.379-2.089c-1.859-1.148-3.599-1.869-3.867-1.6-.269.268.486 2.139 1.677 4.157 2.66 4.508 8.408 7.583 14.176 7.583 4.841 0 6.74-1.308 6.74-4.641 0-1.233.45-2.519 1-2.859.55-.34 1-1.282 1-2.094 0-1.196-.404-1.26-2.127-.338-2.17 1.161-3.82.022-3.858-2.663-.008-.602-.846-1.847-1.861-2.766-1.75-1.583-2.046-1.436-5.673 2.82m-132.814-1.792c-.367.366-.667 1.131-.667 1.7 0 .626.466.567 1.183-.15.651-.651.951-1.416.667-1.7-.284-.285-.817-.217-1.183.15m149.689 6.467c.523 5.005.296 6.708-1.236 9.25-2.583 4.289-3.773 15.428-1.732 16.211 2.902 1.114 4.926-1.346 6.765-8.223 2.539-9.5 2.687-18.786.34-21.38-.992-1.096-2.472-1.992-3.29-1.992-1.225 0-1.375 1.084-.847 6.134m-138.964-3.712c-.681 1.774 1.392 5.83 2.598 5.084.51-.315.447-1.823-.148-3.528-1.159-3.326-1.651-3.638-2.45-1.556m5.608.531c0 2.799 5.233 11.481 6.286 10.428.303-.303.175-1.75-.285-3.216a76.682 76.682 0 0 1-1.437-5.415c-.41-1.872-1.235-2.75-2.583-2.75-1.09 0-1.981.429-1.981.953m115 2.012c0 1.096 3.251 3.035 5.089 3.035.765 0 .545-.747-.589-2-1.893-2.092-4.5-2.692-4.5-1.035m-123 2.094c0 .582.45.781 1 .441s1-.816 1-1.059-.45-.441-1-.441-1 .477-1 1.059m5 3.319c0 .757.675 1.937 1.5 2.622 2.559 2.124 1.677 4.903-3 9.448-4.967 4.828-5.794 7.052-2.25 6.052 3.035-.855 9.75-8.267 9.75-10.761 0-2.325-3.729-8.739-5.082-8.739-.505 0-.918.62-.918 1.378m-8.393 2.204c-.851 2.218-.786 2.418.786 2.418 1.508 0 2.845-2.429 1.871-3.402-1.028-1.029-2.027-.659-2.657.984m15.089 9.668c-1.372 2.338-3.89 5.491-5.595 7.008-1.842 1.637-3.101 3.733-3.101 5.159 0 1.631-1.945 4.27-6.062 8.224-3.333 3.202-6.993 7.331-8.133 9.174-1.808 2.925-1.926 3.837-.931 7.158.627 2.093 3.031 5.696 5.341 8.007 4.749 4.749 14.408 10.02 18.36 10.02h2.632l-2.998-3.414c-3.688-4.201-5.296-8.864-5.53-16.04-.219-6.709 1.258-7.257 3.045-1.131.801 2.748 2.789 5.959 5.049 8.156 7.157 6.957 6.841 7.496 7.546-12.861l.631-18.195-3.172-7.757c-1.744-4.267-3.49-7.758-3.88-7.758-.389 0-1.83 1.912-3.202 4.25m-21.933-1.286c-1.598 1.867-1.531 2.114 1.355 5 1.67 1.67 3.451 3.036 3.959 3.036 1.188 0 1.186-2.535-.004-4.764-.51-.955-1.171-2.523-1.469-3.486-.702-2.271-1.764-2.212-3.841.214m99.48 2.286c.818 1.238 2.843 3.047 4.501 4.021 2.558 1.504 3.448 1.584 5.885.531l2.871-1.241-4.124-.332c-2.787-.224-4.869-1.125-6.424-2.78-2.885-3.071-4.695-3.204-2.709-.199M184 175.2c0 3.419 5.628 8.471 12.054 10.82 7.144 2.611 9.175 2.579 8.766-.138-.216-1.426-1.626-2.599-4.32-3.595-2.2-.812-5.326-1.975-6.946-2.584s-4.432-2.413-6.25-4.009L184 172.793v2.407m-4.062 1.463c-.685 1.803-.683 2.992.008 3.683 1.303 1.303 1.628.882 2.385-3.096.752-3.951-.955-4.37-2.393-.587m-57.188.991c-1.513.263-2.75.809-2.75 1.212 0 1.365 2.389 3.134 4.231 3.134 2.498 0 3.521 3 1.423 4.173-1.244.697-1.654 2.373-1.654 6.768 0 5.483.163 5.883 2.645 6.506 3.938.988 4.932-.747 2.395-4.179-2.6-3.517-1.966-7.829 1.309-8.899 2.846-.93 10.899-.459 12.101.708 1.532 1.488 3.33 1.075 5.511-1.266 2.926-3.14 2.541-5.23-1.211-6.569-3.584-1.279-19.662-2.343-24-1.588m38.25 1.311c0 1.25 3.547 3.155 4.36 2.342.874-.874-1.321-3.307-2.982-3.307-.758 0-1.378.434-1.378.965m7 2.476c0 .857.45 1.559 1 1.559s1-.423 1-.941-.45-1.219-1-1.559c-.55-.34-1 .084-1 .941m39.701 1.192c-.696.695 3.551 4.367 5.052 4.367 1.405 0 4.352-3.562 3.583-4.331-.85-.85-7.793-.879-8.635-.036m-29.11 2.514c.244.395 2.81 1.21 5.702 1.81 5.551 1.152 11.707 4.322 11.707 6.028 0 1.549 3.595 1.208 4.99-.472 1.041-1.255.474-1.818-3.628-3.597-8.136-3.531-20.109-5.934-18.771-3.769M46 189c0 .55.477 1 1.059 1s.781-.45.441-1-.816-1-1.059-1-.441.45-.441 1m83.393.419c-.787 2.049 2.448 6.503 5.23 7.201 2.599.653 3.262 2.38.912 2.38-.806 0-3.003 1.35-4.882 3-1.879 1.65-4.06 3-4.847 3-1.662 0-5.806 5.248-5.806 7.353 0 2.197 3.079 2.885 5.027 1.123 1.144-1.036 2.618-1.352 4.314-.927 1.795.451 3.467.012 5.522-1.451 1.62-1.154 3.631-2.098 4.469-2.098 1.75 0 5.668-4.596 5.668-6.65 0-.758-1.463-2.246-3.25-3.305-1.787-1.06-3.728-2.342-4.313-2.85-.585-.509-2.047-1.451-3.25-2.095a4.143 4.143 0 0 1-2.187-3.635c0-2.665-1.721-3.355-2.607-1.046m8.825.735c.246.741 1.25 1.501 2.23 1.692 1.14.22 1.621-.14 1.334-1-.246-.741-1.25-1.501-2.23-1.692-1.14-.22-1.621.14-1.334 1M99 191.93c0 3.028 3.522 4.511 7.147 3.009 2.791-1.156 3.135-1.028 5.827 2.166 3.088 3.664 4.396 3.373 5.532-1.23.648-2.624.642-2.626-7.179-3.355-4.305-.401-8.614-1.147-9.577-1.659-1.394-.742-1.75-.524-1.75 1.069m-50 2.193c0 .788.9 2.203 2 3.145 1.48 1.267 2 1.365 2 .377 0-.734-.9-2.15-2-3.145-1.561-1.412-2-1.495-2-.377m43.667 1.544c-.367.366-.667 1.131-.667 1.7 0 .626.466.567 1.183-.15.651-.651.951-1.416.667-1.7-.284-.285-.817-.217-1.183.15m-35.438 4.521c.218.653.931 1.365 1.584 1.583.731.244.954-.214.581-1.187-.698-1.818-2.765-2.196-2.165-.396m48.771.703c-4.622 1.209-11.985 5.487-12.56 7.297-1.179 3.716 1.395 4.925 4.392 2.062 5.461-5.217 7.376-6.397 3.668-2.261-2.2 2.455-4.45 4.796-5 5.203-.55.408-1.001 1.538-1.002 2.512-.001.974-1.238 2.363-2.75 3.088-3.101 1.486-3.496 2.707-1.166 3.601 2.04.783 16.82.767 21.602-.024l3.684-.609-3.434-4.992c-2.614-3.801-3.434-6.026-3.434-9.321 0-2.381.45-4.607 1-4.947.55-.34 1-1.041 1-1.559 0-1.036-2.162-1.055-6-.05m83.216 5.39c-2.869 2.905-5.216 5.854-5.216 6.552 0 2.42 4.492 9.062 6.491 9.6 2.703.726 12.463.686 15.259-.063 3.413-.915 2.742-3.636-2.35-9.538-2.531-2.933-5.314-6.795-6.186-8.582-.871-1.787-1.854-3.25-2.183-3.25-.33 0-2.946 2.377-5.815 5.281m-112.871 6.262c-.71 1.849-.452 2.162 2.155 2.612 1.445.249 2.089-.279 2.32-1.905.244-1.721-.175-2.25-1.782-2.25-1.155 0-2.367.694-2.693 1.543M183.5 221c-.34.55.11 1 1 1s1.34-.45 1-1c-.34-.55-.79-1-1-1-.21 0-.66.45-1 1m-11 6c-.787 1.273 1.53 1.273 3.5 0 1.219-.788 1.09-.972-.691-.985-1.205-.008-2.469.435-2.809.985m21.75-.311c.963.252 2.537.252 3.5 0 .963-.251.175-.457-1.75-.457s-2.713.206-1.75.457"/><path fill="#1976D2" fill-opacity=".678" fill-rule="evenodd" d="M94.591 14.852c-.358.579-.434 4.337-.17 8.351.633 9.626-.376 11.021-8.393 11.601-6.736.488-7.725 1.236-8.196 6.2-.258 2.715-.824 3.566-2.535 3.809-1.211.173-2.479 1.185-2.817 2.25-.936 2.948-3.458 2.381-3.614-.813-.546-11.166.979-15.35 7.556-20.739 3.775-3.094 4.766-3.481 6.515-2.545C84.81 23.969 85 23.791 85 21.035c0-3.512-1.05-3.739-6.628-1.437-5.974 2.467-9.801 5.809-11.849 10.352-1.641 3.638-1.747 5.096-.866 11.849.552 4.236 1.307 8.376 1.676 9.201.901 2.014-2.892 8.107-4.631 7.439-.744-.285-2.051-2.188-2.904-4.229-4.332-10.357-4.705-19.47-.847-20.694 1.035-.329 2.377-2.042 2.983-3.807.605-1.765 3.227-5.122 5.826-7.459 2.6-2.337 4.163-4.25 3.475-4.25-1.996 0-7.217 5.126-9.931 9.75-1.549 2.64-3.216 4.25-4.399 4.25-1.636 0-1.925.812-2.047 5.75-.134 5.473-.305 8.212-.687 11-.242 1.768-3.02 1.497-7.671-.75-2.2-1.063-5.687-1.947-7.75-1.966L35 46l.035 6.25c.034 5.872.12 6.099 1.423 3.75.763-1.375 1.14-3.737.839-5.25-.474-2.384-.231-2.748 1.828-2.735 5.004.031 14.206 3.647 15.044 5.912.447 1.209 1.512 2.897 2.366 3.751.855.855 1.394 2.036 1.197 2.626-.748 2.245-2.872 1.757-5.748-1.321-3.836-4.107-3.922-2.064-.093 2.221l2.891 3.236 5.359-1.253c9.754-2.279 10.344-2.467 12.359-3.934 1.848-1.345 1.714-1.406-1.75-.809-2.062.356-3.75.263-3.75-.206s3.301-4.251 7.335-8.405c7.945-8.18 18.057-14.746 27.752-18.02 3.252-1.098 5.913-2.317 5.913-2.709 0-1.346-6.503-6.982-9.25-8.018C95.656 19.92 95.011 17 97.847 17c1.885 0 4.098 1.605 9.962 7.225 2.496 2.392 3.167 3.736 2.731 5.473-.685 2.727-.391 2.761 5.46.645 2.475-.895 6.75-2.239 9.5-2.986l5-1.358-9.026.474-9.026.473-3.442-4.298c-1.893-2.365-4.452-5.06-5.685-5.991-2.845-2.146-7.876-3.186-8.73-1.805M75 15.884c0 .982 5.669.78 6.687-.238.356-.355-1.004-.646-3.02-.646-2.017 0-3.667.398-3.667.884m64.269 8.809c.973.254 2.323.237 3-.037.677-.274-.119-.481-1.769-.461-1.65.02-2.204.244-1.231.498M96.75 27.475C97.134 29.48 97.827 30 100.117 30c4.413 0 3.285-2.868-1.733-4.402-1.837-.562-2.052-.315-1.634 1.877m36.519-1.782c.973.254 2.323.237 3-.037.677-.274-.119-.481-1.769-.461-1.65.02-2.204.244-1.231.498m7.093 3.75c-2.124 1.951-4.2 3.55-4.612 3.552-.412.003-.75.445-.75.983s2.113-.362 4.696-2c2.582-1.638 5.545-2.978 6.583-2.978 1.065 0 1.706-.544 1.471-1.25-.812-2.44-3.577-1.806-7.388 1.693m13.188-2.608c1.353 1.188 10.486 4.463 11.004 3.945.666-.667-8.036-4.78-10.114-4.78-1.076 0-1.445.347-.89.835m-73.131 3.24c-3.04.883-7.196 4.482-6.258 5.419.265.266 2-.637 3.855-2.006C79.871 32.12 81.976 31 82.694 31S84 30.55 84 30s-.112-.959-.25-.91c-.138.05-1.637.493-3.331.985M167 32.465c0 .255 1.012 1.004 2.25 1.664 2.04 1.087 2.122 1.043.878-.465-1.278-1.549-3.128-2.258-3.128-1.199m-65.007 4.081C96.505 39.794 91.808 44 93.67 44c.539 0 3.544-1.991 6.678-4.424 3.134-2.434 6.25-4.622 6.925-4.863.675-.242 1.002-.661.727-.932s-2.978.973-6.007 2.765m70.557-.708c.522.461 3.709 2.921 7.081 5.467 9.916 7.487 16.181 18.44 20.414 35.695 2.012 8.197 2.854 10.014 6.144 13.25 2.097 2.063 4.263 3.75 4.812 3.75 1.676 0 1.112-2.022-.751-2.691-4.227-1.519-7.721-7.436-8.754-14.822-.941-6.732-2.71-11.748-6.873-19.487-4.557-8.471-9.328-13.946-16.03-18.395-4.918-3.264-8.428-4.871-6.043-2.767m-92.01 1.509c-1.252.916-1.48 1.572-.712 2.047 1.452.897 5.416-1.19 4.641-2.444-.798-1.291-1.752-1.195-3.929.397m46.617 19.254c-.086 1.705-.57 4.405-1.074 6-1.928 6.092-2.156 8.399-.83 8.399 1.758 0 4.237 12.91 2.762 14.385-1.375 1.375-7.795 1.78-8.562.539-.327-.528.37-2.52 1.548-4.426 1.178-1.906 1.992-4.486 1.807-5.732-.264-1.789-.937-1.003-3.197 3.734-8.747 18.337-22.468 33.773-37.644 42.35-7.02 3.968-8.603 5.197-6.126 4.757 1.838-.326 5.535-1.695 8.215-3.041 5.295-2.66 15.944-10.361 15.944-11.531 0-.398 2.327-3.381 5.17-6.629 2.844-3.248 6.644-8.208 8.444-11.021 3.224-5.036 3.368-5.125 9.407-5.808 7.108-.804 8.495-.067 9.955 5.289.545 1.999 3.136 7.321 5.757 11.828 2.622 4.507 6.021 10.357 7.554 13 5.827 10.05 9.752 14.385 8.423 9.306-.887-3.393 3.153-2.401 6.905 1.695 1.862 2.033 3.418 3.27 3.459 2.75.041-.52.261-1.941.489-3.159.284-1.523.004-2.057-.897-1.711-.72.276-2.824-1.047-4.676-2.94-2.758-2.822-3.772-3.288-5.621-2.585-1.983.754-2.653.232-5.562-4.326-7.026-11.011-16.109-29.535-18.009-36.724-1.09-4.125-2.32-12-2.733-17.5-.413-5.5-.822-8.605-.908-6.899M37.454 60.75c.458 2.538 2.097 5.188 5.072 8.198 3.917 3.963 4.837 4.422 8.45 4.208 4.964-.292 6.055 1.568 3.259 5.559-1.073 1.532-3.439 5.485-5.257 8.785-7.275 13.204-20.026 28.428-29.476 35.191-1.649 1.18-2.713 2.431-2.365 2.78.959.959 11.748-8.386 18.658-16.161 6.685-7.522 12.614-16.269 18.489-27.278 3.547-6.643 3.987-7.08 7-6.925 1.769.091 4.453-.17 5.966-.579 3.325-.9 3.572.409.804 4.262-1.07 1.491-2.186 4.51-2.478 6.71-.293 2.2-.205 3.1.196 2 .771-2.117 2.64-5.229 7.438-12.386 2.276-3.395 2.538-4.231 1.16-3.703-7.033 2.699-15.618 1.347-20.832-3.282-1.629-1.446-2.366-1.847-1.638-.892 1.596 2.095.781 4.763-1.455 4.763-2.53 0-8.46-6.063-10.512-10.75-2.301-5.253-3.376-5.469-2.479-.5m143.277 11.852c-.402.402-.731 2.054-.731 3.67 0 4.41-2.689 14.302-6.178 22.728-5.118 12.358-6.298 14.947-6.822 14.975-.275.015-.368-4.136-.207-9.224s-.118-12.626-.62-16.751l-.914-7.5-.286 9c-.157 4.95-.387 10.125-.51 11.5-.253 2.819-.694 21.795-.554 23.809.05.72.548 1.026 1.107.681.559-.346.742-1.073.406-1.617-.336-.544.653-2.875 2.198-5.181 3.049-4.549 9.259-17.764 10.114-21.524.702-3.085 2.467-3.633 5.926-1.84 2.331 1.209 3.258 2.879 5.174 9.322 1.284 4.318 3.196 9.958 4.25 12.535 1.054 2.577 1.916 5.39 1.916 6.25 0 .861.498 1.565 1.106 1.565.608 0 2.746 1.284 4.75 2.853 2.18 1.707 5.452 3.106 8.144 3.483l4.5.629-4.065-2.232c-10.695-5.874-15.209-12.906-20.37-31.733-7.265-26.498-7.257-26.474-8.334-25.398m-.054 9.036c-2.059 7.261-1.93 8.18 1.399 9.901l3.208 1.659-.699-5.349c-.775-5.935-2.988-9.452-3.908-6.211M203.604 98c.707 5.246 6.455 21.286 10.214 28.5 3.195 6.131 3.067 5.948 3.707 5.308.289-.289-.581-2.727-1.934-5.417-2.417-4.804-5.063-10.806-7.515-17.046-1.763-4.487-1.059-7.613 1.924-8.54 2.013-.626 1.859-.686-.788-.309-2.507.358-3.418.058-3.834-1.263-1.561-4.959-2.35-5.507-1.774-1.233M213 95.441c0 1.614 1.416 2.809 2.292 1.934.78-.78-.295-3.375-1.399-3.375-.491 0-.893.648-.893 1.441m-161.441 7.091c-1.068.807-2.643 1.478-3.5 1.49-2.742.039-6.22 3.394-5.491 5.296 1.028 2.677 8.381 6.456 13.932 7.158 8.427 1.067 9.34 1.419 9.794 3.776.395 2.047.446 2.017.57-.334.108-2.06.885-2.812 3.835-3.718 2.035-.624 3.884-.95 4.11-.725.225.226-.99 2.485-2.701 5.019C68.936 125.195 66 130.461 66 131.45c0 .303.41.55.911.55.501 0 1.891-2.024 3.088-4.498 1.371-2.833 6.312-8.447 13.339-15.158 6.139-5.863 10.487-10.2 9.662-9.637-.825.563-4.335 3.158-7.8 5.768l-6.301 4.745-14.199-.398c-9.762-.274-15.115-.855-17.126-1.86-3.561-1.779-4.378-3.744-1.907-4.584 4.331-1.473 9.283-3.935 9.307-4.628.04-1.143-1.265-.845-3.415.782M111 112.937c-2.262 1.235-8.421 3.063-10.321 3.063-1.391 0-1.679 1.06-1.679 6.179 0 5.91.451 8.003 3.783 17.557 1.663 4.766 4.465 8.032 3.494 4.071-.311-1.269-.922-2.768-1.357-3.332-1.243-1.61-3.756-9.554-4.499-14.225-.544-3.417-.382-4.25.829-4.25.828 0 2.065.675 2.75 1.5 1.653 1.992 2.543 1.898 5.968-.635 1.739-1.285 3.567-1.874 4.596-1.479 1.461.561 1.615 1.567 1.063 6.952-.584 5.695-.429 6.499 1.614 8.417 4.405 4.136 10.732 6.2 19.075 6.223 8.282.023 10.55-.699 14.887-4.743 2.386-2.224 3.267-2.443 7.5-1.867 4.121.56 5.431 1.356 9.297 5.642 5.413 6.001 10.414 8.254 18.717 8.43 5.963.127 6.267.014 7.414-2.755 1.465-3.537 1.853-20.069.437-18.653-1.521 1.521-2.568 1.139-2.568-.937 0-3.042-7.456-6.733-15.25-7.548-3.713-.388-6.79-.333-6.838.123-.049.457-.163 3.207-.254 6.111-.12 3.841.079 4.733.731 3.272 1.163-2.605 3.982-3.46 6.667-2.023 1.411.755 1.963 1.789 1.632 3.056-.689 2.633-.106 2.414 3.089-1.163l2.75-3.077 1.866 4.526c1.72 4.17 2.092 4.481 4.737 3.952 2.853-.571 3.711.41 1.948 2.226-.507.522-1.323 2.524-1.813 4.448-1.248 4.9-4.536 5.912-11.783 3.628-4.488-1.415-6.258-2.665-9.265-6.543-2.098-2.706-4.588-4.838-5.717-4.897-1.1-.057-4.116-.163-6.703-.236-2.66-.075-5.207-.739-5.863-1.53-1.206-1.453-2.934-1.041-2.934.698 0 .55.45.722 1 .382.55-.34 1-.141 1 .441s-.758 1.059-1.686 1.059c-.927 0-2.766 1.012-4.088 2.25-3.311 3.101-13.632 2.979-20.484-.241-2.608-1.226-4.782-2.517-4.83-2.869-.049-.352-.276-3.171-.505-6.264-.417-5.617-.413-5.625 2.713-6.25 4.928-.986 7.769-.745 10.23.867 1.881 1.233 2.747 1.277 4.957.25 3.487-1.619 3.459-4.501-.057-5.839-7.5-2.855-23.782-5.315-26.25-3.967M60 124c0 .55.675 1 1.5 1s1.5-.45 1.5-1-.675-1-1.5-1-1.5.45-1.5 1m67.5 0c.34.55.816 1 1.059 1s.441-.45.441-1-.477-1-1.059-1-.781.45-.441 1m-114.405 1.941c-.719.445-.901 1.061-.404 1.368.497.307 1.494.195 2.214-.25.719-.445.901-1.061.404-1.368-.497-.307-1.494-.195-2.214.25m43.006.559c-.031.55.823 2.125 1.899 3.5l1.956 2.5.022-2.25c.012-1.285-.586-2.25-1.395-2.25-.779 0-1.643-.562-1.921-1.25-.277-.687-.53-.8-.561-.25m-46.378 2.111C8.508 129.825 8.906 130.879 11 132c2.282 1.221 2.595.196.723-2.365-.703-.961-1.603-1.422-2-1.024m123.906.866c.322.838 1.212 1.523 1.978 1.523 1.953 0 1.734-.747-.584-1.988-1.614-.863-1.87-.778-1.394.465M46.5 130c-.34.55-.141 1 .441 1S48 130.55 48 130s-.198-1-.441-1-.719.45-1.059 1m4.75.277c-1.237.566-2.25 1.651-2.25 2.411 0 1.059.454 1.139 1.944.342 1.985-1.062 3.536-2.916 2.906-3.472-.192-.17-1.363.153-2.6.719M188 130c0 .55.477 1 1.059 1s.781-.45.441-1-.816-1-1.059-1-.441.45-.441 1m15.639 2.694c-.351.352-.639 3.417-.639 6.813 0 3.395-.901 9.694-2.001 13.998-1.101 4.304-1.787 8.041-1.524 8.303.263.263.75-.374 1.083-1.415.333-1.041 1.089-3.018 1.68-4.393 1.084-2.517 2.164-8.174 3.364-17.613.6-4.727-.304-7.352-1.963-5.693M24.5 134.115c-1.65.519-4.913.678-7.25.353-2.701-.375-4.25-.204-4.25.471 0 .629 2.421 1.061 5.95 1.061 4.447 0 6.18.41 6.858 1.621 1.331 2.379 14.455 1.582 16.939-1.029 1.692-1.779 1.614-1.821-2.247-1.202-13.104 2.1-12.863 2.105-12.251-.232.621-2.378.555-2.396-3.749-1.043m29.162 2.445c-1.561 1.373-3.282 4.101-3.823 6.062-1.172 4.245-.325 5.787 1.108 2.017 1.196-3.146 3.658-3.459 4.571-.582.872 2.747 3.888 2.086 4.319-.947.298-2.104.043-2.297-2.272-1.716-3.387.85-4.306-1.333-2.026-4.813 2.095-3.198 1.739-3.202-1.877-.021M60 134.373c0 1.336 4.241 9.582 5.441 10.578.897.745.423-1.139-1.225-4.868-1.478-3.346-3.032-6.083-3.452-6.083-.42 0-.764.168-.764.373m120 4.127c.685.825 1.626 1.5 2.091 1.5.465 0 .587-.675.271-1.5-.317-.825-1.258-1.5-2.091-1.5-1.234 0-1.284.279-.271 1.5m-95.941 1.123c-.131 2.498 4.027 10.078 7.228 13.175 1.874 1.814 4.582 3.389 6.017 3.5 1.436.111 3.192.942 3.903 1.846 1.031 1.312 2.204 1.497 5.793.915 4.633-.752 4.435-1.002-2.5-3.141-8.001-2.468-13.936-7.275-19.191-15.544-.655-1.031-1.218-1.369-1.25-.751m-13.875 2.881c.627 1.378 1.334 2.311 1.57 2.076.706-.707-.816-4.58-1.8-4.58-.501 0-.398 1.127.23 2.504m-9.105 6.079c.048 1.165.285 1.402.604.605.289-.722.253-1.585-.079-1.917-.332-.332-.568.258-.525 1.312M107 147.311c0 .312 1.8 2.647 4 5.189 2.2 2.542 3.982 4.257 3.959 3.811-.047-.924-7.959-9.871-7.959-9M46.5 149c-.34.55-.141 1 .441 1S48 149.55 48 149s-.198-1-.441-1-.719.45-1.059 1m3.996 1.004c-1.498 1.656-1.616 2.438-.676 4.5 1.281 2.813 2.011 2.986 5.633 1.335 3.02-1.376 3.406-2.876.547-2.129-1.684.441-2 .031-2-2.593 0-3.615-.962-3.921-3.504-1.113m-6.829 1.663c-.367.366-.667 1.131-.667 1.7 0 .626.466.567 1.183-.15.651-.651.951-1.416.667-1.7-.284-.285-.817-.217-1.183.15m29.334 1.083c.002 1.718 3.909 10.601 3.952 8.984.067-2.529-2.299-9.734-3.196-9.734a.754.754 0 0 0-.756.75m118.251 2.75c.011 2.2.216 2.982.455 1.738.239-1.244.23-3.044-.02-4s-.446.062-.435 2.262m-129.699 1.953c-2.171 1.858-5.195 3.561-6.72 3.785-3.276.481-8.594-1.556-10.452-4.003-.725-.954-1.332-1.207-1.349-.562-.018.646 1.154 2.583 2.603 4.305 2.243 2.666 2.472 3.491 1.538 5.542-.69 1.515-.741 2.629-.135 3.003.529.327.962-.343.962-1.489 0-2.628 4.557-4.647 6.622-2.933.758.629 1.378 1.656 1.378 2.281 0 1.506-3.82 3.848-5.043 3.092-.528-.327-1.423.62-1.987 2.105-.564 1.484-2.139 4.021-3.498 5.637-1.36 1.616-2.472 3.621-2.472 4.455 0 .835 1.596-.437 3.546-2.826 1.95-2.39 5.169-5.752 7.152-7.473 2.16-1.873 3.722-4.208 3.894-5.822.158-1.482 2.114-4.677 4.348-7.1 3.519-3.819 4.74-5.552 3.81-5.412-.138.02-2.026 1.557-4.197 3.415m42.784 9.297c4.855 6.268 8.69 10.058 12.836 12.685 2.596 1.645 2.658 1.634 2.134-.37-.472-1.803-.085-2.065 3.045-2.065 2.776 0 3.455-.339 3.01-1.5-.379-.987-1.943-1.5-4.575-1.5-4.219 0-8.925-2.976-15.405-9.744-5.129-5.356-5.83-3.684-1.045 2.494m85.258-4.136c-.776 2.02-.257 2.676 1.76 2.224 1.271-.284 1.302-.621.196-2.117-1.211-1.64-1.365-1.649-1.956-.107m7.054 1.071c-1.331 1.33-.558 2.456 2.601 3.788 1.787.754 4.223 2.287 5.413 3.407 1.869 1.759 2.327 1.837 3.372.578.995-1.199.834-1.458-.91-1.458-1.165 0-3.854-1.567-5.973-3.482-2.12-1.915-4.147-3.19-4.503-2.833M78 167.044c0 2.212 12.207 17.438 14.768 18.421 1.273.488.987 1.196-1.542 3.817-3.338 3.461-5.251 7.531-5.185 11.033.035 1.89.578 1.591 4.018-2.214 2.188-2.42 4.249-5.481 4.581-6.803.527-2.099 1-2.319 3.732-1.735 1.72.367 3.578 1.005 4.128 1.416.55.412 3.7.996 7 1.3l6 .551-5-1.458c-12.826-3.74-21.705-10.733-27.498-21.66C80.4 164.804 78 163.525 78 167.044m98.543-1.113c-.317.512-.118 1.213.441 1.559 2.441 1.509.912 4.278-3.234 5.857-9.112 3.47-21.415 4.48-33.548 2.753-2.914-.415-5.493-.439-5.731-.054-.237.385 2.296 1.009 5.631 1.386 6.453.73 10.898 2.29 10.898 3.824 0 .514-.931 2.242-2.068 3.84-1.981 2.782-4.769 3.734-6.338 2.165-.406-.407-2.866-.783-5.466-.837-4.044-.084-4.749.19-4.877 1.898-.19 2.522 1.461 5.678 2.97 5.678.632 0 2.079.866 3.215 1.925 2.056 1.918 2.088 1.898 8.698-5.404 3.649-4.03 6.813-7.863 7.031-8.517.293-.877 1.772-.738 5.655.532 5.742 1.878 7.972 1.445 3.58-.695-1.514-.738-2.955-1.962-3.203-2.722-.365-1.118.619-1.247 5.176-.678 5.313.664 5.627.583 5.627-1.452 0-3.157 2.329-1.926 3.457 1.827.591 1.966 1.611 3.184 2.668 3.184.941 0 2.536.259 3.543.576 1.711.537 1.716.501.082-.55-2.043-1.314-2.231-3.876-.556-7.553.926-2.032.926-3.051 0-4.534-.657-1.051-1.194-2.593-1.194-3.425 0-1.673-1.556-2.042-2.457-.583M184 167.82c.825.374 2.752 1.528 4.281 2.565 3.355 2.275 4.749 1.411 2.225-1.379-1.113-1.23-3.014-1.979-4.911-1.936-1.936.044-2.534.325-1.595.75m12 7.359c1.375 1.128 2.369 2.842 2.208 3.81-.206 1.245.893 2.234 3.75 3.378 2.223.889 4.042 2.295 4.042 3.125 0 .904.901 1.499 2.25 1.486 2.249-.022 2.248-.024-.25-1.946-3.469-2.67-1.553-4.357 4.408-3.883 2.526.201 4.592.025 4.592-.392 0-.416-1.328-.757-2.95-.757-1.739 0-3.342-.699-3.904-1.703-.807-1.443-1.198-1.499-2.566-.364-1.376 1.143-2.528.888-7.847-1.732-4.436-2.186-5.512-2.481-3.733-1.022m-92 2.783c0 .642 2.476 3.644 5.502 6.67 4.399 4.4 5.932 5.365 7.651 4.819 1.742-.552 2.026-.36 1.498 1.015-.358.934-.651 3.461-.651 5.616 0 3.462-.277 3.918-2.385 3.918-1.44 0-3.034-.99-4.023-2.5-1.646-2.512-4.953-3.342-6.076-1.525-.341.552-2.535.71-5.055.365l-4.451-.611-2.493 5.636c-1.37 3.099-2.61 5.659-2.754 5.689-.145.03-3.803.425-8.129.878-4.326.454-8.208 1.379-8.626 2.056-.588.951-1.932.98-5.906.127C54.464 207.19 42 196.411 42 187.54c0-1.517-.429-2.393-1-2.04-.55.34-1 2.237-1 4.215 0 5.338 6.493 13.271 13.75 16.799 2.367 1.151 3.25 2.253 3.25 4.058 0 3.318 3.938 4.787 10.75 4.01 4.182-.478 5.25-.306 5.25.842 0 .793.9 1.727 2 2.076 2.661.845 2.538 3.142-.247 4.632-1.536.822-1.822 1.345-.905 1.651.738.246 3.31-1.484 5.714-3.844l4.373-4.292 2.282 2.867a306.096 306.096 0 0 0 3.283 4.06c1.258 1.502 14.373 2.392 21 1.424 3.79-.554 1.914-.763-7.75-.864-11.793-.124-12.75-.276-12.75-2.026 0-1.183.936-2.126 2.5-2.519 1.684-.422 2.5-1.32 2.5-2.748 0-1.166.787-2.757 1.75-3.536 1.599-1.293 1.567-1.327-.369-.395-2.496 1.202-3.381.565-3.381-2.435 0-3.25 10.445-9.475 15.901-9.475 2.254 0 4.099.45 4.099 1s2.025 1 4.5 1 4.5.273 4.5.606c0 .333-1.125 1.942-2.5 3.576-2.516 2.99-3.358 6.818-1.5 6.818.55 0 1-.468 1-1.04 0-2.268 4.531-6.98 7.725-8.034 3.946-1.302 3.83-3.212-.238-3.926-2.757-.484-2.858-.713-3.146-7.139-.265-5.909-.08-6.696 1.68-7.156 2.309-.604 2.68-2.705.479-2.705-.825 0-1.5.414-1.5.921 0 .506-1.303 1.206-2.896 1.556-3.637.799-8.6-1.218-13.427-5.455-2.022-1.776-3.677-2.703-3.677-2.06m79.17 1.437c.182 1.595 1.005 3.228 1.83 3.629 2.751 1.34 13.476 5.817 15.25 6.367 2.613.81 2.121 2.955-1.25 5.447-1.65 1.22-3 2.77-3 3.444 0 .674-1.371 1.833-3.046 2.574-3.766 1.667-9.949 9.743-13.314 17.39-1.391 3.162-2.359 5.75-2.15 5.75 2.415 0 5.51-2.32 5.51-4.13 0-2.117.058-2.127 2-.37 2.327 2.106 2.672.771.532-2.059-2.576-3.406-1.776-6.195 3.284-11.444 2.649-2.748 5.337-4.997 5.974-4.997.637 0 1.895 1.463 2.795 3.25.899 1.787 3.134 4.825 4.966 6.75 1.832 1.925 4.03 4.85 4.884 6.5.854 1.65 1.555 2.303 1.559 1.45.003-.853-.481-2.037-1.075-2.631-.618-.618-1.055-4.755-1.019-9.653.035-4.714-.379-8.844-.918-9.177-.54-.334-.982-2.282-.982-4.33 0-3.582-.178-3.774-4.75-5.088-7.089-2.037-10.39-3.897-14.08-7.931l-3.33-3.64.33 2.899M152.5 179c-.34.55-.168 1 .382 1s1.278-.45 1.618-1c.34-.55.168-1-.382-1s-1.278.45-1.618 1m63.563 7.083c-4.253 3.558-3.323 4.799 2.153 2.873 4.663-1.641 5.774-3.358 3.095-4.785-1.4-.746-2.59-.312-5.248 1.912M137 189.378c0 1.975 2.71 3.947 4.487 3.265 1.984-.761 1.941-3.265-.069-4.036-2.616-1.004-4.418-.69-4.418.771m47.87-.371c1.304.56 3.701 2.137 5.327 3.505 1.626 1.369 3.826 2.488 4.888 2.488 1.672 0 1.766-.265.701-1.971-1.363-2.183-4.493-3.613-9.786-4.471-3.003-.487-3.163-.423-1.13.449m-122.754 2.121c-.064 1.445.559 3.187 1.384 3.872 1.605 1.332 2.105.036.597-1.55-.497-.522-1.119-1.85-1.384-2.95-.379-1.575-.506-1.442-.597.628M77.094 194c-.068 4.736 1.553 9.061 3.656 9.754 2.019.666 1.45-3.786-1.184-9.254l-2.408-5-.064 4.5M133 198c0 .55.702 1 1.559 1s1.281-.45.941-1c-.34-.55-1.041-1-1.559-1s-.941.45-.941 1m67.234-.166c-.978.621-.751 1.753 1 4.977 2.22 4.087 4.654 5.893 3.288 2.439-.381-.963-.938-3.213-1.238-5-.572-3.41-.978-3.731-3.05-2.416m-89.88 9.687c-.728 1.897 3.004 9.905 5.43 11.65 1.016.731 2.105 2.022 2.42 2.87.482 1.296 3.409 1.579 18.434 1.782 9.824.133 19.437.478 21.362.767 2.649.397 3.107.274 1.884-.507-.889-.568-9.186-1.278-18.438-1.579-15.803-.512-19.912-1.082-16.503-2.289 2.361-.835 6.213-5.154 5.552-6.223-.898-1.453-5.069-1.21-6.382.372-.803.967-2.243 1.161-4.95.666-5.273-.964-5.892-1.519-5.404-4.843.471-3.204-2.351-5.413-3.405-2.666m-34.104 3.123c-1.888.789-1.498 4.153.612 5.282 2.434 1.303 5.493-.839 4.987-3.492-.365-1.91-3.17-2.806-5.599-1.79m60.257.345c-.35.566.051.734.941.393 1.732-.665 2.049-1.382.611-1.382-.518 0-1.216.445-1.552.989M56 214.566c0 1.804 2.562 4.672 6.623 7.412l4.631 3.126 1.912-2.052c1.894-2.033 1.888-2.052-.677-2.052-3.397 0-8.157-2.512-9.495-5.01-.972-1.817-2.994-2.779-2.994-1.424m128.543 8.306c-1.412.577-.187.985 4.396 1.464 8.798.919 14.19.636 7.561-.397-2.75-.429-6.125-1.024-7.5-1.323-1.375-.3-3.381-.184-4.457.256m19.27.811c.721.289 1.584.253 1.916-.079.332-.332-.258-.568-1.312-.525-1.165.048-1.402.285-.604.604m-37 1c.721.289 1.584.253 1.916-.079.332-.332-.258-.568-1.312-.525-1.165.048-1.402.285-.604.604"/></svg>