<?xml version="1.0" encoding="utf-8"?>
<svg viewBox="0 0 153.13 153.13" width="153.13" height="153.13" xmlns="http://www.w3.org/2000/svg">
  <path d="M 84.763 29.923 L 29.633 85.403 L 1.723 113.493 C 0.5 116.293 -0.127 119.317 -0.117 122.373 C -0.117 135.893 12.283 146.883 27.693 147.173 L 94.253 147.173 C 110.057 147.406 123.05 134.768 123.253 118.963 L 123.253 41.213 C 118.693 31.897 109.255 25.964 98.883 25.893 C 93.892 25.891 89.001 27.287 84.763 29.923 Z" fill="#e62c5a" opacity=".8" style="isolation:isolate"/>
  <path d="M 29.947 33.785 L 29.947 111.565 C 34.51 120.882 43.953 126.816 54.327 126.885 C 59.304 126.886 64.183 125.501 68.417 122.885 L 123.537 67.405 L 151.437 39.245 C 152.649 36.455 153.275 33.446 153.277 30.405 C 153.277 16.905 140.887 5.905 125.487 5.615 L 58.887 5.615 C 43.124 5.42 30.178 18.022 29.947 33.785 Z" fill="#0fabf6" opacity=".8" style="isolation:isolate"/>
  <path d="M 68.476 122.856 L 123.596 67.376 L 123.596 40.796 C 119.033 31.474 109.585 25.539 99.206 25.476 C 94.234 25.47 89.361 26.856 85.136 29.476 L 30.016 84.976 L 30.016 111.586 C 34.583 120.895 44.017 126.826 54.386 126.906 C 59.368 126.892 64.247 125.489 68.476 122.856 Z" fill="#501b8d" opacity=".5" style="isolation:isolate"/>
</svg>