<svg xmlns="http://www.w3.org/2000/svg" width="16" height="16" viewBox="0 0 16 16">
  <path fill="#FFF" fill-opacity=".7" d="M4,8.6 C3.66862915,8.6 3.4,8.33137085 3.4,8 C3.4,7.66862915 3.66862915,7.4 4,7.4 L12,7.4 C12.3313708,7.4 12.6,7.66862915 12.6,8 C12.6,8.33137085 12.3313708,8.6 12,8.6 L4,8.6 Z M4,4.6 C3.66862915,4.6 3.4,4.33137085 3.4,4 C3.4,3.66862915 3.66862915,3.4 4,3.4 L12,3.4 C12.3313708,3.4 12.6,3.66862915 12.6,4 C12.6,4.33137085 12.3313708,4.6 12,4.6 L4,4.6 Z M4,12.6 C3.66862915,12.6 3.4,12.3313708 3.4,12 C3.4,11.6686292 3.66862915,11.4 4,11.4 L12,11.4 C12.3313708,11.4 12.6,11.6686292 12.6,12 C12.6,12.3313708 12.3313708,12.6 12,12.6 L4,12.6 Z"/>
</svg>
