<svg xmlns="http://www.w3.org/2000/svg" enable-background="new 0 0 2500 2500" viewBox="0 0 2500 2500"><path fill="#d3d3d3" d="M2131.68,2141.12c-13.8,0-131.16-1.44-231.56-48.07c-109.43-50.83-224.51-64.77-362.17-43.86
				c-139.91,21.25-213.04,55.69-213.77,56.04l-2.24-4.69c0.73-0.35,74.47-35.11,215.23-56.49c138.71-21.07,254.74-6.99,365.14,44.28
				c105.22,48.87,229.34,47.61,230.63,47.58l0.08,5.2C2132.94,2141.11,2132.49,2141.12,2131.68,2141.12z"/><path fill="#d3d3d3" d="M798.02,2216.78l-2.37-4.63c2.4-1.23,241.85-123.15,394.81-126.88c152.89-3.74,379.73,91.11,382,92.07
				l-2.02,4.79c-2.26-0.95-228.21-95.37-379.85-91.67C1038.82,2094.17,800.42,2215.55,798.02,2216.78z"/><path fill="#fea300" d="M1351.52,1215.27c0,0-18.21,22.84-49.95,49.05c-31.97,26.37-77.74,56.17-132.49,69.37
					c-11.9,2.91-24.25,5-36.98,6.1c-129.19,11.22-299.82-78.59-299.82-78.59l21.23-117.74c0,0,125,91.31,271.38,67.84
					c130.63-20.92,194.01-97.61,194.01-97.61L1351.52,1215.27z"/><path fill="#e28d05" d="M1301.57,1264.32c-31.97,26.37-77.74,56.17-132.49,69.37c58.15-36.44,102.16-121.5,102.16-121.5
					S1289.53,1243.85,1301.57,1264.32z"/><path fill="#fea300" d="M965.94,1898.61l10.24,155.26c1.21,19.76-13.82,36.75-33.58,37.96l-140.69,8.62
							c-11.31,0.69-21.55-4.88-27.38-13.68c-2.93-4.4-4.77-9.61-5.08-15.28c-0.99-18.3,5.45-35.23,16.73-47.94
							c11.3-12.85,27.55-21.39,46.01-22.52l8.72-0.53c22.08-1.35,38.9-20.37,37.55-42.45l-4.02-53.82L965.94,1898.61z"/><path fill="#ecedeb" d="M845.32,2016.82c2.23,36.41-25.49,67.78-61.93,70.01c-2.99,0.18-5.95,0.16-8.86-0.06
							c-2.93-4.4-4.76-9.61-5.08-15.28c-0.99-18.3,5.45-35.23,16.73-47.94c11.3-12.85,27.55-21.39,46.01-22.52l10-0.61
							C843.89,2005.59,844.97,2011.12,845.32,2016.82z"/><path d="M770.3,2077.01c3.41,14.18,16.54,24.38,31.61,23.45l140.7-8.62c16.12-0.99,29.08-12.47,32.66-27.39L770.3,2077.01z"/><polygon points="970.32 1958.12 965.95 1898.63 874.46 1904.24 878.83 1963.73"/><path d="M861.54,2004.52l-4.75,2.76c-0.53,0.31-1.21,0.13-1.52-0.41l-6.2-10.69c-0.31-0.53-0.13-1.21,0.41-1.52l4.75-2.76
						c0.53-0.31,1.21-0.13,1.52,0.41l6.2,10.69C862.25,2003.53,862.07,2004.21,861.54,2004.52z"/><path d="M870.65,1997.02l-4.75,2.76c-0.53,0.31-1.21,0.13-1.52-0.41l-6.2-10.69c-0.31-0.53-0.13-1.21,0.41-1.52l4.75-2.76
						c0.53-0.31,1.21-0.13,1.52,0.41l6.2,10.69C871.36,1996.03,871.18,1996.71,870.65,1997.02z"/><path d="M879.75,1989.52l-4.75,2.76c-0.53,0.31-1.21,0.13-1.52-0.41l-6.2-10.69c-0.31-0.53-0.13-1.21,0.41-1.52l4.75-2.76
						c0.53-0.31,1.21-0.13,1.52,0.41l6.2,10.69C880.47,1988.53,880.29,1989.21,879.75,1989.52z"/><path fill="#fea300" d="M1012.04,2141.75l-119.24,99.96c-15.23,12.65-37.81,10.56-50.46-4.68l-90.05-108.44
							c-7.24-8.72-8.79-20.27-5.13-30.17c1.82-4.96,4.94-9.52,9.33-13.12c14.18-11.6,31.65-16.4,48.57-14.81
							c17.05,1.53,33.54,9.6,45.35,23.82l5.58,6.72c14.13,17.02,39.41,19.36,56.43,5.23l41.05-35.03L1012.04,2141.75z"/><path fill="#ecedeb" d="M845.41,2114.24c-28.06,23.3-69.75,19.46-93.07-8.62c-1.91-2.3-3.65-4.71-5.18-7.19
							c1.82-4.96,4.94-9.52,9.33-13.12c14.18-11.6,31.65-16.4,48.57-14.81c17.05,1.53,33.54,9.6,45.35,23.83l6.4,7.71
							C853.63,2106.45,849.81,2110.59,845.41,2114.24z"/><path d="M752.53,2089.25c-9.43,11.12-9.9,27.75-0.26,39.36l90.06,108.45c10.32,12.42,27.23,16.1,41.39,10.17L752.53,2089.25z"/><polygon points="966.6 2180.44 1012.03 2141.78 953.47 2071.26 908.04 2109.92"/><path d="M864.91,2120.06l-5.03-2.21c-0.56-0.25-0.82-0.9-0.57-1.47l4.96-11.31c0.25-0.56,0.9-0.82,1.47-0.57l5.03,2.21
						c0.56,0.25,0.82,0.9,0.57,1.47l-4.96,11.31C866.14,2120.05,865.48,2120.31,864.91,2120.06z"/><path d="M876.35,2122.98l-5.03-2.21c-0.56-0.25-0.82-0.9-0.57-1.47l4.96-11.31c0.25-0.56,0.9-0.82,1.47-0.57l5.03,2.21
						c0.56,0.25,0.82,0.9,0.57,1.47l-4.96,11.31C877.57,2122.97,876.91,2123.23,876.35,2122.98z"/><path d="M887.78,2125.9l-5.03-2.21c-0.56-0.25-0.82-0.9-0.57-1.47l4.96-11.31c0.25-0.56,0.9-0.82,1.47-0.57l5.03,2.21
						c0.56,0.25,0.82,0.91,0.57,1.47l-4.96,11.31C889,2125.89,888.34,2126.15,887.78,2125.9z"/><path fill="#727ef4" d="M1360.17,1402.61l-22.73,81.3l-23.21,83.05c0,0-44.86,1.36-101.4,4.78c-89.1,5.4-207.18,15.97-224.14,34.57
					c-27.73,30.39,13.71,285.6,7.75,305.87c-5.96,20.27-103.75,45.31-124.01,32.2c-20.27-13.12-65.58-357.74-21.48-420.95
					c27.39-39.21,174.81-91.42,282.77-125.4C1207.69,1374.74,1287.21,1376.32,1360.17,1402.61z"/><path fill="#4a61d8" d="M1337.44,1483.91l-23.21,83.05c0,0-44.86,1.36-101.4,4.78c66.63-29.74,119.75-97.22,119.75-97.22
					L1337.44,1483.91z"/><path fill="#727ef4" d="M1354.23,1400.47c0,0-27.47,122.95-102.6,258.6c-66.87,120.73-327.6,389.66-333.6,416.78
					c-8.65,39.05,74.23,89.73,100.47,80.79c21.16-7.21,384.45-369.21,430.79-439.43c4.39-6.65,8.69-13.7,12.91-21.07
					C1525.33,1585.81,1473.27,1445.06,1354.23,1400.47L1354.23,1400.47z"/><path d="M1253.9,1660.33l-4.55-2.52c43.98-79.4,71.62-154.46,87.07-203.44l4.95,1.56
					C1325.86,1505.15,1298.09,1580.55,1253.9,1660.33z"/><path fill="#4cb621" d="M776.87,533.59c0,0-40.91-124.36-26.23-150.3c14.68-25.94,44.95,37.48,44.95,37.48s-12.25-80.72,0-110.26
						c12.25-29.55,27.39-41.08,34.59-29.55c7.21,11.53,10.12,99.45,10.12,99.45s25.95-74.95,53.32-74.95s-11.61,90.81-11.61,90.81
						s25.29-8.95,39.7,14.98c14.41,23.93-39.7,178.95-39.7,178.95l-78.49-16.98L776.87,533.59z"/><path fill="#fff" d="M817.93,2208.04c0,0,227.01-570.78,84.32-1517.74H796.31c157.83,739.41-302.68,1478.83-302.68,1478.83
						L817.93,2208.04z"/><path d="M820.35,2209l-4.83-1.92c0.57-1.43,57.13-145.55,95.55-403.4c35.4-237.61,62.18-623.1-11.05-1110.79H799.52
						c35.47,168.07,41.75,349.96,18.66,540.72c-18.58,153.51-56.12,313.06-111.57,474.22c-94.4,274.39-209.62,460.81-210.78,462.66
						l-4.41-2.75c1.15-1.85,116.11-187.87,210.32-461.73c86.91-252.64,173.42-633.85,92.03-1015.18l-0.67-3.14h111.38l0.33,2.21
						c73.76,489.49,46.88,876.39,11.35,1114.76C877.66,2063.04,820.91,2207.57,820.35,2209z"/><rect width="5.2" height="39.41" x="775.5" y="663.59" transform="rotate(-14.974 777.94 683.18)"/><path d="M819.84,693.25l-5.19-0.22c0.38-8.94-1.45-17.94-5.29-26.02l4.7-2.23C818.26,673.62,820.26,683.47,819.84,693.25z"/><rect width="5.2" height="39.41" x="775.5" y="663.59" transform="rotate(-14.974 777.94 683.18)"/><path d="M819.84,693.25l-5.19-0.22c0.38-8.94-1.45-17.94-5.29-26.02l4.7-2.23C818.26,673.62,820.26,683.47,819.84,693.25z"/><path d="M430.21,700.07l-5.16-0.56c0.87-8.02,3.03-15.8,6.42-23.13l4.72,2.18C433.03,685.38,431.02,692.61,430.21,700.07z"/><path d="M475.11,703.24l-5.17-0.55c2.22-20.88,7.62-41.21,16.08-60.44l4.76,2.09C482.53,663.08,477.26,682.9,475.11,703.24z"/><path d="M531.64,698.99l-5.01-1.4c6.61-23.68,14.43-47.32,23.25-70.27l4.85,1.86C545.97,651.98,538.21,675.46,531.64,698.99z
								"/><path d="M591.7,702.09l-5.19-0.27c1.93-37.3,13.32-73.8,32.96-105.57l4.42,2.73C604.71,630.01,593.58,665.66,591.7,702.09z"/><path d="M663.69,684.74l-5.16-0.63c3.5-28.72,7.47-61.26,25.91-86.85l4.22,3.04C671.01,624.8,667.12,656.64,663.69,684.74z"/><path d="M735.13,682.11c-0.64-25.43,2.68-50.7,9.87-75.11l4.99,1.47c-7.03,23.9-10.28,48.63-9.66,73.52L735.13,682.11z"/><rect width="39.41" height="5.2" x="774.03" y="637.74" transform="rotate(-75.202 793.79 640.365)"/><path d="M825.03,669.72l-4.4-2.77c4.77-7.58,7.65-16.29,8.33-25.21l5.18,0.4C833.39,651.89,830.24,661.43,825.03,669.72z"/><path fill="#63c634" d="M862.29,687.51c0,0-17.69,10.53-24.07,7.66c-6.38-2.87-9.72-30.2-9.72-30.2s-25.33,27.03-34.59,22.36
									c-9.26-4.67,9.26-49.71,9.26-49.71s-33.62,39.84-49.86,29.28c-16.24-10.56,5.67-41.73,5.67-41.73s-33.36,32.83-47.88,22.46
									c-14.52-10.36,3.99-40.48,3.99-40.48s-31.89,37.05-42.54,28.07c-10.65-8.99,8.9-35.87,8.9-35.87s-36.58,31.05-46.38,19.95
									c-9.8-11.1,3.8-37.66,3.8-37.66s-24.23,27.96-37.15,18.32s0.32-32.42,0.32-32.42s-22.24,25.24-34.32,13.48
									c-12.08-11.76-2.25-34.59-2.25-34.59s-22.67,24.25-34.7,15.04c-12.03-9.21-1.65-31.57-1.65-31.57s-29.1,24.8-40.14,15.16
									s4.26-28.15,4.26-28.15s-20.65,21.86-31.03,14.05c-10.38-7.82,9.66-24.85,9.66-24.85s-33.27,17.82-40.7,10.61
									c-7.43-7.21,11.91-26.41,11.91-26.41s-31.48,22.78-42.66,9.58c0,0,96.96-141.35,325.61-30.13
									C889.24,549.14,915.65,658.55,862.29,687.51z"/><path d="M483.45,482.14l-4.2-3.06c4.75-6.53,10.49-12.22,17.06-16.89l3.01,4.24C493.21,470.78,487.87,476.06,483.45,482.14
										z"/><path d="M520.84,507.18l-4.22-3.04c12.29-17.02,27.08-31.99,43.97-44.47l3.09,4.18
										C547.23,476.02,532.82,490.6,520.84,507.18z"/><path d="M572.24,531.32l-4.09-3.2c17.66-22.6,35.87-38.94,55.68-49.95l2.52,4.54
										C607.16,493.38,589.46,509.28,572.24,531.32z"/><path d="M622.61,564.09l-4.37-2.81c20.19-31.42,48.21-57.44,81.03-75.26l2.48,4.57
										C669.7,507.99,642.33,533.4,622.61,564.09z"/><path d="M693.72,584.78l-4.16-3.11c17.3-23.19,36.92-49.47,65.62-62.51l2.15,4.73
										C729.84,536.38,710.65,562.09,693.72,584.78z"/><path d="M761.6,620.44l-4.57-2.47c12.08-22.39,27.51-42.67,45.87-60.29l3.6,3.75C788.53,578.67,773.42,598.53,761.6,620.44
										z"/><rect width="39.41" height="5.2" x="808.93" y="608.23" transform="rotate(-45.42 828.659 610.807)"/><path d="M841.21,651.86l-2.44-4.59c7.9-4.21,14.73-10.34,19.76-17.74l4.3,2.92C857.32,640.55,849.85,647.26,841.21,651.86z
										"/><path fill="#4cb621" d="M861.03,690.19c0,0-10.12,17.93-17.09,18.61c-6.96,0.68-23.43-21.39-23.43-21.39
								s-8.56,36.04-18.92,36.59c-10.36,0.54-16.65-47.74-16.65-47.74s-9.4,51.28-28.73,50.17c-19.34-1.1-15.8-39.04-15.8-39.04
								s-12.65,45.06-30.4,43.27c-17.75-1.79-16.64-37.12-16.64-37.12s-9.28,48-22.99,45.49c-13.7-2.51-10.09-35.55-10.09-35.55
								s-16.33,45.12-30.35,40.35c-14.02-4.77-15.4-34.57-15.4-34.57s-7.14,36.3-23.15,34.35c-16-1.96-15.82-28.3-15.82-28.3
								s-6.77,32.95-23.09,28.74c-16.32-4.21-19.13-28.9-19.13-28.9s-7.63,32.31-22.65,30.29c-15.02-2.02-17.11-26.58-17.11-26.58
								s-12.94,35.97-27.31,33.09c-14.37-2.88-10.28-26.55-10.28-26.55s-7.07,29.23-19.96,27.6c-12.89-1.63-3.96-26.37-3.96-26.37
								s-20.03,31.99-30.06,29.42c-10.03-2.57-2.77-28.84-2.77-28.84s-16.01,35.41-32.27,29.5c0,0,13.97-170.84,267.66-187.85
								C815.7,556.7,892.96,638.55,861.03,690.19z"/><path d="M430.21,700.07l-5.16-0.56c0.87-8.02,3.03-15.8,6.42-23.13l4.72,2.18C433.03,685.38,431.02,692.61,430.21,700.07z"/><path d="M475.11,703.24l-5.17-0.55c2.22-20.88,7.62-41.21,16.08-60.44l4.76,2.09C482.53,663.08,477.26,682.9,475.11,703.24z"/><path d="M531.64,698.99l-5.01-1.4c6.61-23.68,14.43-47.32,23.25-70.27l4.85,1.86C545.97,651.98,538.21,675.46,531.64,698.99z
								"/><path d="M591.7,702.09l-5.19-0.27c1.93-37.3,13.32-73.8,32.96-105.57l4.42,2.73C604.71,630.01,593.58,665.66,591.7,702.09z"/><path d="M663.69,684.74l-5.16-0.63c3.5-28.72,7.47-61.26,25.91-86.85l4.22,3.04C671.01,624.8,667.12,656.64,663.69,684.74z"/><path d="M735.13,682.11c-0.64-25.43,2.68-50.7,9.87-75.11l4.99,1.47c-7.03,23.9-10.28,48.63-9.66,73.52L735.13,682.11z"/><rect width="39.41" height="5.2" x="774.03" y="637.74" transform="rotate(-75.202 793.79 640.365)"/><path d="M825.03,669.72l-4.4-2.77c4.77-7.58,7.65-16.29,8.33-25.21l5.18,0.4C833.39,651.89,830.24,661.43,825.03,669.72z"/><path d="M487.47,917.74c-3.22-7.4-5.21-15.23-5.91-23.27l5.18-0.45c0.65,7.48,2.5,14.76,5.5,21.64L487.47,917.74z"/><path d="M528.01,898.22c-8.45-19.23-13.85-39.57-16.06-60.44l5.17-0.55c2.15,20.34,7.41,40.16,15.65,58.9L528.01,898.22z"/><path d="M574.69,865.63c-6.02-23.83-10.97-48.23-14.72-72.53l5.14-0.79c3.72,24.14,8.64,48.38,14.62,72.05L574.69,865.63z"/><path d="M628.76,839.57c-16.85-33.33-25.09-70.67-23.82-108l5.2,0.18c-1.24,36.45,6.81,72.93,23.26,105.48L628.76,839.57z"/><path d="M682.48,788.42c-11.22-26.67-23.93-56.89-20.63-88.25l5.17,0.54c-3.16,30.03,9.28,59.6,20.25,85.69L682.48,788.42z"/><path d="M747.97,748.65c-13.18-21.76-22.85-45.34-28.73-70.1l5.06-1.2c5.76,24.23,15.22,47.31,28.13,68.61L747.97,748.65z"/><path fill="#63c634" d="M861.26,693.14c0,0,0.12,20.59-5.59,24.63s-30.96-6.93-30.96-6.93s10.47,35.53,1.75,41.15
								s-38.16-33.17-38.16-33.17s17.31,49.17-0.02,57.82c-17.33,8.65-33.1-26.04-33.1-26.04s11.4,45.4-4.89,52.66
								c-16.29,7.26-32.88-23.95-32.88-23.95s15.78,46.27,2.64,50.9c-13.14,4.63-26.42-25.85-26.42-25.85s8.24,47.27-6.3,50.1
								c-14.54,2.83-30.54-22.36-30.54-22.36s11.83,35.06-3.03,41.31c-14.86,6.25-27.78-16.71-27.78-16.71s10.49,31.96-5.77,36.41
								c-16.26,4.45-30.96-15.59-30.96-15.59s9.42,31.83-4.62,37.53c-14.04,5.7-28.05-14.57-28.05-14.57s6.63,37.65-7.27,42.29
								c-13.9,4.64-22.11-17.94-22.11-17.94s8.38,28.88-3.61,33.87c-12,4.99-16.53-20.92-16.53-20.92s-1.5,37.71-11.48,40.46
								c-9.98,2.75-16.73-23.65-16.73-23.65s3.69,38.69-13.36,41.63c0,0-72.72-155.22,139.03-295.97
								C755.62,599.79,863.33,632.46,861.26,693.14z"/><path d="M487.47,917.74c-3.22-7.4-5.21-15.23-5.91-23.27l5.18-0.45c0.65,7.48,2.5,14.76,5.5,21.64L487.47,917.74z"/><path d="M528.01,898.22c-8.45-19.23-13.85-39.57-16.06-60.44l5.17-0.55c2.15,20.34,7.41,40.16,15.65,58.9L528.01,898.22z"/><path d="M574.69,865.63c-6.02-23.83-10.97-48.23-14.72-72.53l5.14-0.79c3.72,24.14,8.64,48.38,14.62,72.05L574.69,865.63z"/><path d="M628.76,839.57c-16.85-33.33-25.09-70.67-23.82-108l5.2,0.18c-1.24,36.45,6.81,72.93,23.26,105.48L628.76,839.57z"/><path d="M682.48,788.42c-11.22-26.67-23.93-56.89-20.63-88.25l5.17,0.54c-3.16,30.03,9.28,59.6,20.25,85.69L682.48,788.42z"/><path d="M747.97,748.65c-13.18-21.76-22.85-45.34-28.73-70.1l5.06-1.2c5.76,24.23,15.22,47.31,28.13,68.61L747.97,748.65z"/><rect width="5.2" height="39.41" x="930.77" y="632.7" transform="rotate(-4.439 933.163 652.682)"/><path d="M897.3,675.66c-3.64-9.09-5.02-19.04-4-28.77l5.17,0.54c-0.93,8.9,0.33,17.99,3.65,26.3L897.3,675.66z"/><rect width="5.2" height="39.41" x="930.77" y="632.7" transform="rotate(-4.439 933.163 652.682)"/><path d="M897.3,675.66c-3.64-9.09-5.02-19.04-4-28.77l5.17,0.54c-0.93,8.9,0.33,17.99,3.65,26.3L897.3,675.66z"/><path d="M1267.09,552.72c-3.24-6.76-7.54-12.92-12.78-18.31l3.73-3.62c5.63,5.79,10.25,12.41,13.74,19.69L1267.09,552.72z"/><path d="M1225.79,570.62c-8.79-18.48-20.35-35.42-34.33-50.35l3.79-3.55c14.36,15.32,26.21,32.71,35.23,51.67L1225.79,570.62
								z"/><path d="M1171.06,585.38c-13.99-19.99-29.12-39.56-44.96-58.17l3.96-3.37c15.95,18.73,31.17,38.44,45.26,58.56
								L1171.06,585.38z"/><path d="M1115.43,608.24c-13.87-33.73-36.21-63.67-64.59-86.57l3.26-4.05c29.07,23.44,51.94,54.09,66.14,88.64
								L1115.43,608.24z"/><path d="M1041.76,615.78c-12.56-25.36-26.8-54.11-51.59-71.35l2.97-4.27c25.89,18.01,40.44,47.39,53.28,73.31L1041.76,615.78
								z"/><path d="M968.56,638.62c-7.68-23.69-18.96-45.94-33.52-66.14l4.22-3.04c14.88,20.64,26.4,43.37,34.25,67.58L968.56,638.62z"/><rect width="5.2" height="39.41" x="901.76" y="597.38" transform="rotate(-34.195 904.431 617.115)"/><path d="M884.6,655.18c-7.67-6.09-13.82-14.03-17.76-22.99l4.76-2.1c3.6,8.18,9.22,15.45,16.23,21.01L884.6,655.18z"/><path fill="#63c634" d="M855.35,684.34c0,0,20.18,4.06,25.25-0.76c5.07-4.82-0.86-31.72-0.86-31.72s32.87,17.09,40.05,9.61
									c7.18-7.48-25.24-43.82-25.24-43.82s44.94,26.42,56.75,11.07c11.81-15.35-19.21-37.48-19.21-37.48s42.37,19.89,52.62,5.29
									c10.25-14.59-17.2-36.86-17.2-36.86s42.39,24.36,49.45,12.35c7.06-12.01-20.3-30.88-20.3-30.88s44.82,17.15,50.38,3.42
									c5.56-13.73-16.09-34.26-16.09-34.26s32.14,18.33,41.12,4.94c8.98-13.39-11.07-30.47-11.07-30.47s29.36,16.42,36.84,1.32
									c7.49-15.11-9.36-33.37-9.36-33.37s29.43,15.35,37.72,2.67c8.29-12.68-8.93-30.33-8.93-30.33s35.68,13.73,42.9,0.97
									c7.22-12.75-13.37-25.14-13.37-25.14s26.74,13.77,33.93,2.95s-17.36-20.24-17.36-20.24s37.3,5.76,41.91-3.51
									c4.61-9.27-20.01-20.96-20.01-20.96s37.26,11.04,43.42-5.13c0,0-138.4-101.14-317.14,79.69
									C783.99,562.76,795.4,674.73,855.35,684.34z"/><path d="M1144.51,364.83c-6.18-4.26-12.97-7.47-20.19-9.55l1.43-5c7.76,2.23,15.06,5.68,21.7,10.26L1144.51,364.83z"/><path d="M1117.55,400.87c-16.8-11.67-35.24-20.64-54.81-26.65l1.53-4.97c20.07,6.17,39,15.37,56.24,27.35L1117.55,400.87z"/><path d="M1077.08,440.7c-23.56-15.07-45.54-24.19-67.17-27.89l0.87-5.12c22.34,3.81,44.94,13.18,69.1,28.63L1077.08,440.7z
										"/><path d="M1040.45,488.33c-28.79-22.39-63.04-37.28-99.05-43.06l0.83-5.13c36.87,5.91,71.94,21.16,101.42,44.09
										L1040.45,488.33z"/><path d="M980.25,531.46c-23.5-15.78-50.14-33.66-80.22-36.31l0.46-5.18c31.4,2.77,58.63,21.05,82.66,37.17L980.25,531.46z"/><path d="M928.06,587.64c-18.42-16.75-39.26-30.46-61.94-40.76l2.15-4.73c23.16,10.52,44.46,24.53,63.29,41.64
										L928.06,587.64z"/><rect width="5.2" height="39.41" x="859.03" y="581.12" transform="rotate(-63.973 861.592 600.813)"/><path d="M863.4,643.71c-9.68-1.47-18.96-5.32-26.83-11.13l3.09-4.18c7.2,5.31,15.68,8.83,24.53,10.18L863.4,643.71z"/><path fill="#4cb621" d="M857.43,686.44c0,0,15.5,13.55,22.29,11.88c6.79-1.67,15-27.96,15-27.96s20.04,31.16,29.99,28.23
								c9.95-2.93-0.15-50.56-0.15-50.56s25.89,45.25,43.76,37.79c17.87-7.46,1.94-42.07,1.94-42.07s26.9,38.3,43.04,30.73
								c16.15-7.58,3.37-40.54,3.37-40.54s24.69,42.19,36.79,35.27c12.09-6.92-2.28-36.89-2.28-36.89s30.38,37.14,42.03,27.99
								c11.65-9.15,3.05-37.72,3.05-37.72s18.79,31.87,33.24,24.71c14.45-7.16,5.52-31.94,5.52-31.94s17.33,28.83,31.33,19.44
								c14-9.39,8.44-33.61,8.44-33.61s17.92,27.94,31.42,21.05c13.49-6.89,7.31-30.75,7.31-30.75s24.15,29.63,36.75,22.15
								s0.88-28.46,0.88-28.46s16.37,25.23,27.99,19.41c11.62-5.82-5.02-26.19-5.02-26.19s29.51,23.52,38.12,17.77
								c8.61-5.76-6.96-28.12-6.96-28.12s26.86,28.08,40.23,17.11c0,0-69.9-156.51-314.85-88.32
								C855.87,545.48,810.17,648.34,857.43,686.44z"/><path d="M1267.09,552.72c-3.24-6.76-7.54-12.92-12.78-18.31l3.73-3.62c5.63,5.79,10.25,12.41,13.74,19.69L1267.09,552.72z"/><path d="M1225.79,570.62c-8.79-18.48-20.35-35.42-34.33-50.35l3.79-3.55c14.36,15.32,26.21,32.71,35.23,51.67L1225.79,570.62
								z"/><path d="M1171.06,585.38c-13.99-19.99-29.12-39.56-44.96-58.17l3.96-3.37c15.95,18.73,31.17,38.44,45.26,58.56
								L1171.06,585.38z"/><path d="M1115.43,608.24c-13.87-33.73-36.21-63.67-64.59-86.57l3.26-4.05c29.07,23.44,51.94,54.09,66.14,88.64
								L1115.43,608.24z"/><path d="M1041.76,615.78c-12.56-25.36-26.8-54.11-51.59-71.35l2.97-4.27c25.89,18.01,40.44,47.39,53.28,73.31L1041.76,615.78
								z"/><path d="M968.56,638.62c-7.68-23.69-18.96-45.94-33.52-66.14l4.22-3.04c14.88,20.64,26.4,43.37,34.25,67.58L968.56,638.62z"/><rect width="5.2" height="39.41" x="901.76" y="597.38" transform="rotate(-34.195 904.431 617.115)"/><path d="M884.6,655.18c-7.67-6.09-13.82-14.03-17.76-22.99l4.76-2.1c3.6,8.18,9.22,15.45,16.23,21.01L884.6,655.18z"/><path d="M1285.35,777.05l-5.18-0.38c0.54-7.49-0.13-14.97-2-22.24l5.03-1.29C1285.22,760.96,1285.94,769.01,1285.35,777.05z"/><path d="M1240.62,772.1l-5.18-0.39c1.55-20.4-0.07-40.84-4.79-60.75l5.06-1.2C1240.55,730.19,1242.21,751.17,1240.62,772.1z"/><path d="M1180.6,757.33c-2.22-24.32-5.63-48.82-10.13-72.82l5.11-0.96c4.53,24.16,7.97,48.82,10.2,73.31L1180.6,757.33z"/><path d="M1126.12,750.23l-5.16-0.67c4.72-36.17,0.2-73.24-13.07-107.22l4.84-1.89
								C1126.32,675.24,1130.95,713.2,1126.12,750.23z"/><path d="M1058.47,719.82l-5.19-0.31c1.69-28.26,3.6-60.29-9.35-87.56l4.7-2.23C1062.15,658.2,1060.19,690.94,1058.47,719.82z
								"/><path d="M983.49,704.05l-5.09-1.06c5.1-24.38,6.36-49.29,3.75-74.05l5.17-0.54C989.99,653.69,988.7,679.14,983.49,704.05z"/><path fill="#63c634" d="M858.19,689.31c0,0,6.73,19.46,13.45,21.38s26.91-16.82,26.91-16.82s1.92,36.99,12.01,39.4
								c10.09,2.4,24.98-43.96,24.98-43.96s0,52.13,19.22,54.53c19.22,2.4,22.58-35.55,22.58-35.55s4.32,46.6,22.1,48.05
								c17.78,1.44,23.06-33.51,23.06-33.51s0.48,48.89,14.41,48.89c13.93,0,16.34-33.15,16.34-33.15s7.93,47.32,22.58,45.16
								c14.65-2.16,21.38-31.23,21.38-31.23s0.48,36.99,16.58,37.96c16.1,0.96,20.66-24.98,20.66-24.98s0.72,33.63,17.54,32.43
								c16.82-1.2,24.02-24.98,24.02-24.98s1.68,33.15,16.82,33.87c15.13,0.72,21.62-23.06,21.62-23.06s6.25,37.72,20.9,37.48
								c14.65-0.24,14.89-24.26,14.89-24.26s1.68,30.03,14.65,30.75c12.97,0.72,8.65-25.22,8.65-25.22s13.93,35.07,24.26,34.35
								c10.33-0.72,7.93-27.87,7.93-27.87s9.37,37.72,26.42,34.83c0,0,17.06-170.56-229.42-233.02
								C926.84,566.18,836.09,632.76,858.19,689.31z"/><path d="M1285.35,777.05l-5.18-0.38c0.54-7.49-0.13-14.97-2-22.24l5.03-1.29C1285.22,760.96,1285.94,769.01,1285.35,777.05z"/><path d="M1240.62,772.1l-5.18-0.39c1.55-20.4-0.07-40.84-4.79-60.75l5.06-1.2C1240.55,730.19,1242.21,751.17,1240.62,772.1z"/><path d="M1180.6,757.33c-2.22-24.32-5.63-48.82-10.13-72.82l5.11-0.96c4.53,24.16,7.97,48.82,10.2,73.31L1180.6,757.33z"/><path d="M1126.12,750.23l-5.16-0.67c4.72-36.17,0.2-73.24-13.07-107.22l4.84-1.89
								C1126.32,675.24,1130.95,713.2,1126.12,750.23z"/><path d="M1058.47,719.82l-5.19-0.31c1.69-28.26,3.6-60.29-9.35-87.56l4.7-2.23C1062.15,658.2,1060.19,690.94,1058.47,719.82z
								"/><path d="M983.49,704.05l-5.09-1.06c5.1-24.38,6.36-49.29,3.75-74.05l5.17-0.54C989.99,653.69,988.7,679.14,983.49,704.05z"/><g><path d="M854.94,1582.62c-10.78,0-21.44-0.7-31.68-2.11l0.71-5.15c31.81,4.4,67.71,1.71,98.5-7.39l1.48,4.98
						C902.39,1579.33,878.38,1582.62,854.94,1582.62z"/></g><g><path d="M845.07,1719.79c-26.35,0-52.72-5.56-76.45-16.62l2.19-4.71c43.17,20.11,95.33,21.51,139.51,3.74l1.94,4.82
						C891.06,1715.55,868.08,1719.79,845.07,1719.79z"/></g><g><path d="M855.64,1832.09c-7.11,0-14.23-0.45-21.31-1.35l0.66-5.16c15.89,2.02,31.96,1.7,47.75-0.95
						c5.01-0.84,11.09-2.36,13.6-6.67l4.49,2.61c-3.59,6.19-11.1,8.16-17.23,9.19C874.34,1831.31,865,1832.09,855.64,1832.09z"/></g><g><path d="M817.93,2011.47c-35.14,0-70.14-6.3-103.26-18.75l1.83-4.87c48.1,18.07,100.27,22.96,150.89,14.14l0.89,5.12
						C851.6,2010.03,834.75,2011.47,817.93,2011.47z"/></g><g><path d="M864.23,1867.41c-4.01,0-8.01-0.24-11.97-0.71l0.62-5.16c13.11,1.57,26.73,0.38,39.38-3.46l1.51,4.97
						C884.26,1865.94,874.22,1867.41,864.23,1867.41z"/></g><g><path d="M879.18,1558c-2.27,0-4.54-0.06-6.8-0.18l0.27-5.19c16.93,0.88,34.3-1.68,50.26-7.38l1.75,4.89
						C910.19,1555.32,894.6,1558,879.18,1558z"/></g><g><path d="M830.86,537.11c-5.95-37.34,5.71-76.33,31.17-104.29l3.84,3.5c-24.05,26.4-35.5,64.71-29.89,99.97L830.86,537.11z"/></g><g><rect width="5.2" height="108.43" x="810.53" y="389.36" transform="rotate(-2.688 813.273 443.75)"/></g><g><path d="M783.69,472.35c-1.51-12.74-6.27-24.96-13.76-35.36l4.22-3.04c8,11.11,13.09,24.18,14.71,37.79L783.69,472.35z"/></g><g><path d="M1366.67,1813.31c-62.22-51.86-61.39-58.27-61.04-61.01c1.13-8.54,61.08-78.21,111.16-135.15
						c10.65-12.11,28.44-14.92,42.32-6.68l28.46,16.85l-2.65,4.47l-28.47-16.85c-11.73-6.97-26.78-4.59-35.76,5.64
						c-66.45,75.55-108.57,126.29-109.92,132.43c0.11,1.12,3.44,9.81,59.22,56.31L1366.67,1813.31z"/><rect width="5.2" height="80.72" x="1435.8" y="1617.28" transform="rotate(-47.546 1438.354 1657.656)"/></g><g><path d="M1078.24,1442.56c-1.31,0-1.8-0.17-2.15-0.29c-2.14-0.75-4.91-3.12-10.76-21.92l4.96-1.54
						c5.01,16.12,7.28,18.36,7.68,18.64c1.61,0.31,16.56-0.57,127.53-29.4c2.9-0.75,5.65-1.47,8.25-2.15l4.18-1.1
						c10.48-2.75,17.62-12.22,17.37-23.04l5.2-0.12c0.31,13.23-8.43,24.83-21.25,28.19l-4.18,1.09c-2.61,0.69-5.37,1.41-8.27,2.16
						C1106.4,1439.16,1084.1,1442.56,1078.24,1442.56z"/><rect width="5.2" height="27.5" x="1199.82" y="1383.57" transform="rotate(-15.804 1202.615 1397.36)"/></g><g><path fill="#fea300" d="M2007.35,1091.51c0,0-76.72,228.47-199.97,249.72c-41.1,7.1-79.41,3.25-113.44-6.16
					c-46.64-12.92-85.26-36.32-112.03-56.31c-26.23-19.56-41.13-35.87-41.13-35.87l20.75-123.39c0,0,146.66,119.72,221.88,106.01
					c78.28-14.25,100.61-168.13,100.61-168.13L2007.35,1091.51z"/></g><g><path fill="#e28d05" d="M1693.94,1335.07c-46.64-12.92-85.26-36.32-112.03-56.31l26.46-70.28
					C1608.37,1208.49,1636.95,1298.44,1693.94,1335.07z"/></g><g><path fill="#fea300" d="M1477.99,1398.85c-65.07,14.87-129.95-9.72-169.55-58.03c-16.14-19.67-28.13-43.34-34.18-69.85
						c-0.11-0.51-0.25-1.05-0.34-1.56c-19.42-88.76,34.38-176.79,121.5-200.42c2.2-0.62,4.47-1.16,6.73-1.7
						c23.97-5.45,47.89-5.62,70.5-1.19c63.97,12.52,117.71,61.43,133.2,129.02C1626.8,1286.71,1569.55,1377.93,1477.99,1398.85z"/><path d="M1306.43,1342.46c-17.03-20.76-28.7-44.62-34.7-70.92l-0.1-0.42c-0.1-0.43-0.2-0.86-0.27-1.29
						c-5.13-23.46-5.35-47.33-0.61-70.82l5.1,1.03c-4.6,22.77-4.39,45.93,0.62,68.81c0.08,0.43,0.16,0.75,0.23,1.06l0.11,0.47
						c5.82,25.51,17.14,48.65,33.65,68.78L1306.43,1342.46z"/><path d="M1478.56,1401.38l-1.16-5.07c90.01-20.56,146.5-110.56,125.93-200.61l5.07-1.16
						C1629.61,1287.4,1571.36,1380.18,1478.56,1401.38z"/><path d="M1444,1136.74c-31.28,0-69.66-20.49-89.58-50.45l4.32-2.88c22.8,34.28,72.93,56.26,103.22,45.2
						c13.7-5,23.11-12.88,27.22-22.78c4.1-9.89,3.09-21.57-3.01-34.73l4.72-2.19c6.73,14.53,7.78,27.62,3.09,38.9
						c-4.68,11.28-15.14,20.16-30.24,25.67C1457.72,1135.7,1451.04,1136.74,1444,1136.74z"/><path fill="#e28d05" d="M1472.65,1066.1c5.33,15.13-1.46,29.06-16.75,32.54c-20.41,4.65-54.09-10.15-60.5-29.66
						c2.23-0.61,4.47-1.16,6.75-1.69C1426.1,1061.81,1450.02,1061.66,1472.65,1066.1z"/><circle cx="1475.84" cy="1169.32" r="10.25" fill="#e28d05"/><circle cx="1480.62" cy="1215.27" r="10.25" fill="#e28d05"/><circle cx="1480.62" cy="1261.21" r="10.25" fill="#e28d05"/><circle cx="1475.15" cy="1309.72" r="10.25" fill="#e28d05"/></g><g><polygon fill="#727ef4" points="2023.97 938.96 1890.86 911.11 1839.73 1171.36 1977.34 1187.66"/><polygon points="1890.86 911.11 1868.45 913.76 1819.83 1165.34 1839.73 1171.36"/></g><g><path fill="#fff" d="M2005.06,1039.84c0,0,38.64,19.57,26.93,57.93c-11.71,38.36-29.52,63.74-61.52,61.42
							c-27.31-1.98-53.18-22.81-43.35-33.94c0,0-9.33-4.97-9.3-11.97c0.02-7,9.65-8.52,9.65-8.52s-13.41-7.68-11.3-16.77
							c2.11-9.09,12.73-8.45,12.73-8.45s-5.45-7.4-1.76-15.13s45.21,8.69,60.43,7.14
							C1999.73,1070.33,2005.06,1039.84,2005.06,1039.84z"/><path d="M1974.58,1161.95c-1.41,0-2.85-0.05-4.3-0.16c-22.34-1.62-42.24-14.7-46.81-25.9c-1.44-3.53-1.42-6.94,0.02-9.86
							c-3.16-2.23-8.29-6.77-8.27-12.76c0.02-4.71,3.14-7.67,6.53-9.37c-4.24-3.45-9.74-9.46-8.1-16.5
							c1.51-6.51,6.7-9.23,11.11-10.12c-1.39-3.36-2.54-8.56,0.05-13.99c2.85-5.96,14.12-3.63,33.79,1.01
							c11.07,2.61,22.55,5.3,28.72,4.67c7.42-0.75,13.25-18.54,15.19-29.58l0.6-3.45l3.13,1.58c0.41,0.21,40.44,21.02,28.24,61
							C2021.31,1141.65,2002.2,1161.95,1974.58,1161.95z M1928.37,1082.13c-1.67,0-8.26,0.39-9.67,6.45
							c-1.37,5.89,6.79,12.05,10.06,13.93l6.37,3.67l-7.26,1.15c-0.07,0.01-7.44,1.28-7.46,5.96c-0.02,5.29,7.85,9.63,7.93,9.67
							l2.9,1.55l-2.18,2.47c-1.67,1.89-1.93,4.16-0.79,6.95c3.89,9.54,22.84,21.26,42.38,22.68c27.15,1.96,45.84-16.97,58.85-59.59
							c9.16-30-14.01-47.72-22.61-53.11c-1.93,8.72-7.64,29.09-19.05,30.25c-7.04,0.72-18.95-2.08-30.44-4.78
							c-9.71-2.29-25.96-6.12-27.93-3.8c-2.95,6.16,1.34,12.2,1.52,12.45l3.22,4.45l-5.48-0.33
							C1928.71,1082.14,1928.58,1082.13,1928.37,1082.13z"/><path d="M1983.72,1141.53c-0.71-0.02-17.61-0.46-31.37-3.38c-13.97-2.96-26.09-10.37-26.6-10.68l2.73-4.43
							c0.11,0.07,11.88,7.25,24.94,10.03c13.29,2.82,30.25,3.27,30.42,3.27L1983.72,1141.53z"/><path d="M1989.45,1121.01c-0.8-0.01-19.57-0.39-32.51-2.62c-13.14-2.27-29.97-10.96-30.68-11.33l2.4-4.61
							c0.17,0.09,16.83,8.69,29.17,10.82c12.55,2.16,31.53,2.54,31.72,2.54L1989.45,1121.01z"/><path d="M1993.16,1098.97c-1.22-0.07-29.99-1.69-40.36-4.96c-10.27-3.24-24.63-11.87-25.23-12.24l2.69-4.45
							c0.14,0.09,14.44,8.68,24.11,11.73c9.76,3.08,38.8,4.72,39.09,4.73L1993.16,1098.97z"/><path d="M1992.54,1074.55c-3.11,0-5.26-0.4-5.45-0.43l0.97-5.11c0.09,0.02,9.08,1.63,16.37-2.42c6.53-3.63,5.54-9.29,5.53-9.35
						l5.1-0.97c0.07,0.38,1.67,9.43-8.1,14.86C2001.94,1073.92,1996.47,1074.55,1992.54,1074.55z"/></g><g><ellipse cx="1243.84" cy="911.56" rx="111.56" ry="126.83" transform="rotate(-16.817 1243.662 911.473)"/></g><g><ellipse cx="1434.33" cy="940.25" fill="#fff" rx="97.99" ry="110.1" transform="rotate(-18.547 1434.419 940.279)"/><path d="M1441.17,1051.84c-16.65,0-33.43-4.54-49.05-13.48c-24.71-14.14-43.59-37.62-53.14-66.11l0,0
					c-9.56-28.48-8.67-58.59,2.52-84.78c11.22-26.29,31.46-45.49,56.99-54.06c25.53-8.57,53.25-5.46,78.06,8.74
					c24.71,14.14,43.59,37.62,53.14,66.1c9.56,28.48,8.67,58.59-2.51,84.78c-11.23,26.29-31.47,45.49-56.99,54.06
					C1460.72,1050.26,1450.97,1051.84,1441.17,1051.84z M1427.48,833.87c-9.24,0-18.43,1.48-27.34,4.47
					c-24.1,8.09-43.23,26.26-53.87,51.17c-10.68,25.01-11.52,53.81-2.37,81.09l0,0c9.15,27.28,27.19,49.74,50.8,63.25
					c23.51,13.45,49.72,16.41,73.83,8.32c24.1-8.09,43.23-26.26,53.87-51.17c10.68-25.01,11.52-53.81,2.37-81.09
					c-9.15-27.28-27.19-49.74-50.8-63.25C1459.14,838.18,1443.24,833.87,1427.48,833.87z"/></g><g><path fill="#fff" d="M1345.41,977.25c-2.2,1.02-4.57,1.77-7.08,2.18c-14.76,2.41-28.68-7.6-31.09-22.36
					c-2.41-14.76,7.6-28.68,22.36-31.09c9.14-1.49,17.95,1.78,23.91,7.98"/><path d="M1333.94,982.39c-14.28,0-26.9-10.36-29.28-24.9c-2.64-16.15,8.36-31.44,24.51-34.08c9.62-1.57,19.43,1.7,26.21,8.75
					c0.99,1.03,0.96,2.68-0.07,3.67c-1.04,1-2.68,0.96-3.67-0.07c-5.59-5.82-13.66-8.52-21.62-7.22
					c-13.33,2.18-22.4,14.79-20.22,28.11c2.18,13.32,14.81,22.4,28.11,20.22c2.22-0.36,4.38-1.02,6.41-1.97
					c1.29-0.6,2.84-0.04,3.45,1.26c0.61,1.3,0.04,2.85-1.26,3.45c-2.46,1.14-5.07,1.95-7.76,2.39
					C1337.13,982.26,1335.52,982.39,1333.94,982.39z"/></g><g><circle cx="1372.37" cy="857.22" r="81.28"/></g><g><ellipse cx="1387.53" cy="814.98" rx="95.77" ry="88.14" transform="rotate(-9.284 1387.086 815.003)"/></g><g><ellipse cx="1496.51" cy="839.44" rx="63.86" ry="55.56" transform="rotate(-9.284 1496.032 839.473)"/></g><g><ellipse cx="1496.51" cy="839.44" rx="63.86" ry="55.56" transform="rotate(-9.284 1496.032 839.473)"/></g><g><path fill="#fff" d="M1493.55,897.85c-13.17,0-25.85-3.47-36.64-10.15c-14.25-8.82-23.47-22.15-25.99-37.55l5.13-0.84
					c2.27,13.89,10.65,25.96,23.59,33.97c13.06,8.08,29.18,11.08,45.4,8.43l0.84,5.13C1501.75,897.51,1497.63,897.85,1493.55,897.85
					z"/></g><g><ellipse cx="1454.37" cy="939.75" rx="7.66" ry="10.63" transform="rotate(-17.749 1454.402 939.858)"/><path d="M1438.55,929.18c-0.34,0-0.69-0.07-1.02-0.21c-1.32-0.56-1.93-2.09-1.37-3.41c1.57-3.69,5.13-6.77,9.51-8.24
						c4.92-1.65,10.11-1.13,14.65,1.46c1.25,0.71,1.68,2.3,0.97,3.55c-0.72,1.25-2.3,1.68-3.55,0.97
						c-3.23-1.85-6.95-2.22-10.42-1.05c-2.95,0.99-5.4,3.05-6.39,5.36C1440.52,928.59,1439.56,929.18,1438.55,929.18z"/></g><g><ellipse cx="1502.08" cy="927.27" rx="7.66" ry="10.63" transform="rotate(-17.749 1502.12 927.382)"/><path d="M1486.26,916.7c-0.34,0-0.69-0.07-1.02-0.21c-1.32-0.56-1.94-2.09-1.37-3.41c1.57-3.69,5.13-6.77,9.51-8.24
						c4.9-1.65,10.11-1.13,14.65,1.46c1.25,0.71,1.68,2.3,0.97,3.55c-0.71,1.25-2.3,1.68-3.55,0.97c-3.23-1.85-6.93-2.22-10.42-1.05
						c-2.95,0.99-5.4,3.05-6.39,5.36C1488.23,916.11,1487.27,916.7,1486.26,916.7z"/></g><g><path fill="#fff" d="M1477.77,930.32c-0.69,11.04,3.92,22.3,12.16,29.68c2,1.79,4.21,3.37,6.01,5.37c1.8,2,3.2,4.54,3.13,7.22
					c-0.09,3.42-2.48,6.32-4.98,8.66c-1.48,1.38-3.04,2.67-4.67,3.87"/><path d="M1489.43,987.72c-0.8,0-1.59-0.37-2.1-1.06c-0.85-1.16-0.6-2.78,0.56-3.63c1.55-1.14,3.04-2.37,4.43-3.67
					c2.78-2.6,4.1-4.77,4.16-6.83c0.06-2.27-1.52-4.36-2.46-5.41c-1.07-1.19-2.34-2.24-3.68-3.35c-0.72-0.6-1.44-1.2-2.14-1.82
					c-8.77-7.86-13.76-20.03-13.02-31.78c0.09-1.43,1.33-2.53,2.75-2.43c1.43,0.09,2.52,1.32,2.43,2.76
					c-0.64,10.19,3.69,20.76,11.3,27.58c0.65,0.58,1.32,1.14,1.99,1.7c1.42,1.18,2.89,2.4,4.21,3.87c1.79,1.98,3.9,5.16,3.8,9.03
					c-0.13,4.66-3.37,8.22-5.8,10.49c-1.54,1.44-3.19,2.81-4.91,4.07C1490.5,987.55,1489.96,987.72,1489.43,987.72z"/></g><g><path d="M1466.31,1013.55c-0.93,0-1.82-0.49-2.29-1.37c-6.2-11.49-19.54-18.52-32.56-17.09c-1.38,0.17-2.71-0.87-2.87-2.3
					c-0.16-1.43,0.87-2.71,2.3-2.87c15-1.67,30.53,6.48,37.7,19.78c0.68,1.26,0.21,2.84-1.06,3.52
					C1467.15,1013.44,1466.73,1013.55,1466.31,1013.55z"/></g><g><path fill="#d3d3d3" d="M2078.47,641.29c-5.36-0.83-10.39-3.7-13.84-8.42c-55.68-76.1-137.81-125.99-231.26-140.47
					c-93.45-14.48-186.83,8.21-262.93,63.88c-9.44,6.9-22.69,4.85-29.59-4.59c-6.91-9.44-4.85-22.68,4.59-29.59
					c85.22-62.35,189.79-87.77,294.42-71.56c0.01,0-0.01,0,0,0c104.63,16.21,196.59,72.08,258.95,157.31
					c6.91,9.44,4.85,22.68-4.59,29.59C2089.5,640.91,2083.83,642.12,2078.47,641.29z"/></g><g><path fill="#e5e5e5" d="M1604.7,628.47c-5.35-0.83-10.39-3.7-13.84-8.42c-6.91-9.44-4.85-22.68,4.58-29.59
					c67-49.02,149.2-69,231.45-56.25c82.25,12.75,154.54,56.67,203.56,123.67c6.91,9.44,4.85,22.68-4.59,29.59
					c-9.43,6.91-22.69,4.85-29.59-4.58c-42.34-57.87-104.8-95.81-175.88-106.83c-71.07-11.01-142.09,6.24-199.96,48.58
					C1615.73,628.09,1610.06,629.3,1604.7,628.47z"/></g><g><path fill="#ecedeb" d="M1941.78,741.31c-5.35-0.83-10.39-3.7-13.84-8.42c-59.99-81.99-175.49-99.89-257.49-39.9
					c-9.44,6.91-22.69,4.85-29.59-4.58c-6.91-9.44-4.85-22.68,4.59-29.59c100.83-73.78,242.88-51.76,316.66,49.07
					c6.91,9.44,4.85,22.68-4.59,29.59C1952.81,740.92,1947.13,742.13,1941.78,741.31z"/></g><g><path fill="#ecedeb" d="M1873.43,791.31c-5.36-0.83-10.39-3.7-13.85-8.42c-15.7-21.46-38.82-35.52-65.09-39.59
					c-26.28-4.07-52.57,2.33-74.03,18.03c-9.44,6.91-22.69,4.85-29.59-4.59c-6.9-9.44-4.85-22.68,4.59-29.59
					c30.59-22.38,68.06-31.51,105.52-25.7c37.46,5.8,70.41,25.85,92.79,56.44c6.9,9.44,4.85,22.68-4.59,29.59
					C1884.46,790.93,1878.78,792.14,1873.43,791.31z"/></g><g><path fill="#ec4e84" d="M1826.21,878.27c7,10.14,4.47,24.02-5.67,31.03c-10.14,7-24.02,4.47-31.05-5.68l-18.35-26.56l-26.59,18.35
				c-10.14,7-24.05,4.46-31.05-5.68c-7-10.14-4.47-24.02,5.67-31.03l26.59-18.37l-18.37-26.59c-7.01-10.14-4.46-24.05,5.68-31.05
				c5.07-3.5,11.08-4.63,16.7-3.6c5.62,1.03,10.85,4.21,14.35,9.28l18.37,26.59l26.56-18.38c10.16-7,24.05-4.46,31.05,5.68
				c3.5,5.07,4.63,11.08,3.6,16.7c-1.03,5.62-4.21,10.85-9.28,14.35l-26.59,18.37L1826.21,878.27z"/></g><g><path d="M1865.65,365.06c-0.72,0-1.43-0.3-1.94-0.87c-0.8-0.9-0.88-2.24-0.19-3.23c1.87-2.66,6.39-10.79,4.75-16.34
				c-0.69-2.33-2.41-4.03-5.27-5.19c-9.1-3.69-15.93,5.01-19.1,10.33c-1.07,2.38-2.05,3.96-2.16,4.13c-0.72,1.14-2.2,1.54-3.4,0.91
				c-1.2-0.63-1.72-2.07-1.19-3.32c0.58-1.38,1.35-2.91,2.29-4.49c1.46-3.4,2.92-8.28,1.56-12.2c-0.9-2.59-2.96-4.42-6.3-5.6
				c-13.93-4.92-20.21,11.16-20.47,11.84c-0.5,1.32-1.98,2-3.3,1.53c-1.33-0.47-2.05-1.92-1.61-3.26
				c0.05-0.14,4.57-14.23-0.06-22.24c-1.56-2.69-3.98-4.33-7.39-5.04c-3.84-0.79-6.85-0.25-9.17,1.67
				c-5.62,4.65-5.51,15.75-5.51,15.86c0.02,1.39-1.05,2.55-2.44,2.64c-1.39,0.09-2.6-0.93-2.74-2.31c-0.3-2.82-1.51-3.56-1.91-3.8
				c-2.2-1.35-6.1-0.36-7.3,0.09c-0.84,0.32-1.79,0.18-2.5-0.36c-0.72-0.55-1.1-1.42-1.01-2.32c1.73-17.55-12.05-25.25-20.41-28.28
				c-21.17-7.66-49.92-2.02-59.16,11.59c-15.95,23.51,2.26,47.17,3.04,48.17c0.62,0.78,0.73,1.85,0.29,2.74
				c-0.43,0.89-1.34,1.46-2.33,1.46h-39.69c-1.43,0-2.6-1.16-2.6-2.6s1.16-2.6,2.6-2.6h34.88c-5.14-8.71-14.4-29.59-0.49-50.1
				c11.59-17.08,43.99-21.24,65.23-13.56c15.32,5.54,23.9,16.38,23.99,30.06c2.39-0.36,5.55-0.35,8.19,1.26
				c0.02,0.01,0.04,0.03,0.06,0.04c0.91-4.11,2.76-8.88,6.49-11.98c3.57-2.96,8.14-3.88,13.55-2.77c4.88,1.01,8.53,3.54,10.84,7.53
				c2.42,4.18,2.95,9.36,2.72,14.02c4.69-4.39,11.39-7.24,19.95-4.21c4.87,1.72,8.06,4.68,9.48,8.81c0.57,1.64,0.81,3.36,0.81,5.06
				c4.83-4.11,11.05-6.47,18.23-3.55c4.36,1.77,7.16,4.65,8.3,8.55c1.35,4.61,0,9.77-1.7,13.79c5.21-1.86,11.85-3.16,15.78,0.2
				c1.09,0.93,1.21,2.57,0.28,3.66c-0.93,1.09-2.57,1.21-3.66,0.28c-2.74-2.36-11.82,0.77-17.08,3.63
				C1866.49,364.96,1866.07,365.06,1865.65,365.06z"/><path d="M1632.47,359.2h-23.02c-1.43,0-2.6-1.16-2.6-2.6s1.16-2.6,2.6-2.6h23.02c1.43,0,2.6,1.16,2.6,2.6
				S1633.9,359.2,1632.47,359.2z"/></g><g><path d="M632.63,328.42c-0.72,0-1.43-0.3-1.94-0.87c-0.8-0.9-0.88-2.24-0.19-3.23c1.88-2.67,6.39-10.79,4.75-16.34
				c-0.68-2.33-2.41-4.03-5.27-5.19c-9.09-3.69-15.81,4.74-19,10.11c-1.11,2.5-2.15,4.18-2.26,4.36c-0.72,1.14-2.2,1.54-3.4,0.91
				c-1.2-0.63-1.72-2.07-1.19-3.32c0.58-1.38,1.35-2.91,2.29-4.49c1.46-3.4,2.92-8.28,1.55-12.2c-0.9-2.59-2.96-4.42-6.3-5.6
				c-13.97-4.94-20.21,11.16-20.47,11.84c-0.5,1.32-1.97,2-3.3,1.53c-1.33-0.47-2.05-1.92-1.61-3.26
				c0.05-0.14,4.58-14.23-0.06-22.24c-1.56-2.69-3.97-4.33-7.39-5.04c-3.85-0.79-6.85-0.25-9.17,1.67
				c-5.62,4.65-5.51,15.75-5.51,15.86c0.02,1.39-1.05,2.55-2.44,2.64c-1.39,0.09-2.59-0.93-2.74-2.31c-0.2-1.89-0.83-3.13-1.9-3.8
				c-2.2-1.35-6.03-0.39-7.32,0.09c-0.84,0.31-1.78,0.17-2.5-0.37c-0.71-0.55-1.09-1.42-1.01-2.31
				c1.73-17.56-12.05-25.25-20.42-28.28c-21.18-7.66-49.92-2.02-59.15,11.59c-15.95,23.51,2.26,47.17,3.04,48.17
				c0.62,0.78,0.73,1.85,0.29,2.74c-0.43,0.89-1.34,1.46-2.33,1.46h-39.69c-1.43,0-2.6-1.16-2.6-2.6c0-1.44,1.16-2.6,2.6-2.6h34.88
				c-5.14-8.71-14.4-29.59-0.49-50.1c11.58-17.07,43.99-21.24,65.22-13.56c15.33,5.54,23.9,16.38,23.99,30.06
				c2.4-0.36,5.55-0.35,8.18,1.26c0.02,0.01,0.04,0.03,0.07,0.04c0.91-4.11,2.76-8.88,6.49-11.98c3.56-2.96,8.11-3.89,13.55-2.77
				c4.88,1.01,8.53,3.54,10.84,7.53c2.42,4.18,2.95,9.36,2.72,14.02c4.69-4.39,11.38-7.24,19.95-4.21c4.87,1.72,8.06,4.68,9.48,8.81
				c0.57,1.64,0.81,3.36,0.81,5.06c4.83-4.11,11.05-6.47,18.23-3.55c4.36,1.77,7.16,4.65,8.3,8.55c1.35,4.61,0,9.77-1.7,13.79
				c5.21-1.86,11.85-3.16,15.78,0.2c1.09,0.93,1.21,2.57,0.28,3.66c-0.93,1.09-2.57,1.22-3.66,0.28
				c-2.75-2.37-11.83,0.77-17.08,3.63C633.48,328.31,633.05,328.42,632.63,328.42z"/><path d="M399.46,322.56h-23.02c-1.43,0-2.6-1.16-2.6-2.6c0-1.44,1.16-2.6,2.6-2.6h23.02c1.43,0,2.6,1.16,2.6,2.6
				C402.06,321.39,400.89,322.56,399.46,322.56z"/></g><g><path fill="#fff" d="M815.32,1263.32c0,0,6.74,11.45,8.72,11.64c6.13,0.59,3.19,2.26,17.33,0.4c8.85-1.17,16.87,5.3,17.62,14.2
			l0,0c0.65,7.71-4.42,14.74-11.95,16.53c-22.01,5.24-39.81,8-53.25-1.43C775.53,1291.85,786.28,1264.56,815.32,1263.32z"/></g><g><path d="M816.16,1313.45c-8.79,0-16.89-1.78-23.85-6.66c-8.4-5.89-11.92-15.36-9.18-24.71c3.59-12.29,16.19-20.68,32.08-21.35
			l1.56-0.07l0.79,1.34c2.51,4.25,5.88,9.26,7.21,10.42c1.78,0.2,2.87,0.49,3.75,0.73c1.77,0.48,3.17,0.86,12.52-0.37
			c5-0.66,9.89,0.72,13.82,3.87c3.92,3.16,6.31,7.66,6.74,12.68c0.76,9.07-5.1,17.17-13.93,19.28
			C836.7,1311.22,825.99,1313.45,816.16,1313.45z M813.9,1266.01c-15.56,1.19-23.6,10.08-25.78,17.53
			c-2.12,7.26,0.56,14.36,7.18,18.99c12.99,9.11,30.86,5.85,51.15,1.02c6.32-1.5,10.51-7.3,9.96-13.78
			c-0.3-3.59-2.02-6.81-4.82-9.07c-2.8-2.26-6.33-3.24-9.88-2.77c-9.91,1.3-11.88,0.96-14.55,0.24c-0.85-0.23-1.73-0.47-3.37-0.62
			C822.76,1277.45,820.66,1277.25,813.9,1266.01z"/></g><g><path fill="#fff" d="M818.23,1233.42c0,0,6.74,11.45,8.72,11.64c6.13,0.59,3.19,2.26,17.33,0.4c8.85-1.17,16.87,5.3,17.62,14.2
			l0,0c0.65,7.71-4.42,14.74-11.95,16.53c-22.01,5.24-39.81,8-53.25-1.43C778.44,1261.95,789.19,1234.65,818.23,1233.42z"/></g><g><path d="M819.07,1283.54c-8.79,0-16.89-1.78-23.85-6.66c-8.4-5.89-11.92-15.36-9.19-24.71c3.59-12.29,16.19-20.68,32.08-21.35
			l1.56-0.07l0.79,1.34c2.51,4.25,5.88,9.26,7.21,10.42c1.78,0.2,2.87,0.49,3.75,0.73c1.77,0.48,3.18,0.86,12.52-0.37
			c4.98-0.66,9.9,0.72,13.81,3.87c3.92,3.16,6.31,7.66,6.74,12.68c0.76,9.07-5.1,17.17-13.93,19.28
			C839.61,1281.31,828.91,1283.54,819.07,1283.54z M816.81,1236.11c-15.56,1.19-23.6,10.08-25.78,17.53
			c-2.12,7.26,0.56,14.36,7.18,18.99c12.99,9.11,30.85,5.86,51.15,1.03c6.32-1.5,10.5-7.3,9.96-13.78c-0.3-3.59-2.02-6.81-4.82-9.07
			c-2.8-2.25-6.3-3.24-9.87-2.77c-9.9,1.3-11.88,0.96-14.55,0.24c-0.85-0.23-1.73-0.47-3.37-0.62
			C825.68,1247.54,823.58,1247.34,816.81,1236.11z"/></g><g><path fill="#fff" d="M821.15,1203.51c0,0,6.74,11.45,8.72,11.64c6.13,0.59,3.19,2.26,17.33,0.4c8.85-1.17,16.87,5.3,17.62,14.2
			l0,0c0.65,7.71-4.42,14.74-11.95,16.53c-22.01,5.24-39.81,8-53.25-1.43C781.36,1232.04,792.11,1204.75,821.15,1203.51z"/></g><g><path d="M821.99,1253.64c-8.79,0-16.89-1.78-23.85-6.66c-8.4-5.89-11.92-15.36-9.18-24.71c3.59-12.29,16.19-20.67,32.08-21.35
			l1.56-0.07l0.79,1.34c2.51,4.26,5.88,9.26,7.21,10.42c1.78,0.2,2.87,0.49,3.75,0.73c1.78,0.48,3.18,0.86,12.52-0.37
			c4.98-0.66,9.9,0.72,13.82,3.88c3.92,3.16,6.31,7.66,6.73,12.68c0.76,9.07-5.1,17.17-13.93,19.28
			C842.53,1251.41,831.82,1253.64,821.99,1253.64z M819.72,1206.2c-15.56,1.19-23.6,10.08-25.78,17.52
			c-2.12,7.26,0.56,14.36,7.18,19c12.99,9.11,30.85,5.86,51.15,1.03c6.32-1.5,10.5-7.3,9.96-13.78c-0.3-3.59-2.01-6.81-4.82-9.07
			c-2.81-2.26-6.3-3.24-9.88-2.77c-9.89,1.3-11.88,0.96-14.55,0.24c-0.85-0.23-1.73-0.47-3.36-0.62
			C828.6,1217.64,826.49,1217.44,819.72,1206.2z"/></g><g><path fill="#fff" d="M824.06,1173.61c0,0,6.74,11.45,8.72,11.64c6.13,0.59,3.19,2.26,17.33,0.4c8.85-1.17,16.87,5.3,17.62,14.2
			l0,0c0.65,7.71-4.42,14.74-11.95,16.53c-22.01,5.24-39.81,8-53.25-1.43C784.27,1202.14,795.02,1174.84,824.06,1173.61z"/></g><g><path d="M824.9,1223.73c-8.79,0-16.89-1.78-23.85-6.66c-8.4-5.89-11.92-15.36-9.18-24.71c3.59-12.29,16.19-20.68,32.08-21.35
			l1.56-0.07l0.79,1.34c2.51,4.25,5.88,9.26,7.21,10.42c1.78,0.2,2.87,0.49,3.75,0.73c1.77,0.48,3.17,0.86,12.52-0.37
			c4.98-0.66,9.89,0.72,13.82,3.87c3.92,3.16,6.31,7.66,6.74,12.68c0.76,9.07-5.1,17.17-13.93,19.28
			C845.44,1221.5,834.74,1223.73,824.9,1223.73z M822.64,1176.3c-15.56,1.19-23.6,10.08-25.78,17.53
			c-2.12,7.26,0.56,14.36,7.18,18.99c12.99,9.11,30.86,5.86,51.15,1.03c6.32-1.5,10.51-7.3,9.96-13.78
			c-0.3-3.59-2.02-6.81-4.82-9.07c-2.8-2.26-6.32-3.24-9.88-2.77c-9.91,1.3-11.88,0.96-14.55,0.24c-0.85-0.23-1.73-0.47-3.37-0.62
			C831.51,1187.73,829.41,1187.53,822.64,1176.3z"/></g></svg>