<svg xmlns="http://www.w3.org/2000/svg" xmlns:xlink="http://www.w3.org/1999/xlink" data-name="Layer 1" viewBox="0 0 2000 2000"><defs><linearGradient id="b" x1="-432.284" x2="-432.284" y1="1118.362" y2="1618.684" gradientTransform="matrix(-1 0 0 1 567.716 0)" gradientUnits="userSpaceOnUse"><stop offset="0" stop-color="#e5e5e5"/><stop offset=".476" stop-color="#f4f4f4"/><stop offset="1" stop-color="#fff"/></linearGradient><linearGradient id="a" x1="1097.129" x2="1336.013" y1="1076.242" y2="1076.242" gradientUnits="userSpaceOnUse"><stop offset="0" stop-color="#a50404"/><stop offset="1" stop-color="#e64d4e"/></linearGradient><linearGradient id="c" x1="772.392" x2="1025.881" y1="759.851" y2="1258.237" xlink:href="#a"/><linearGradient id="d" x1="973.74" x2="1007.4" y1="1041.561" y2="949.342" xlink:href="#a"/><linearGradient id="e" x1="820.247" x2="811.025" y1="1017.624" y2="954.454" xlink:href="#a"/><linearGradient id="f" x1="1013.693" x2="1008.96" y1="1511.264" y2="1322.884" gradientUnits="userSpaceOnUse"><stop offset="0" stop-color="#4e9cff"/><stop offset=".193" stop-color="#4190f5"/><stop offset=".709" stop-color="#2274dd"/><stop offset="1" stop-color="#176ad4"/></linearGradient></defs><path fill="#eee" d="M633.6984,959.79937c12.10463,17.11989,2.11833,39.39942-9.93078,51.93212-14.81519,15.41024-29.86905,13.03022-36.72662,26.65692-8.28614,16.46588,9.35067,28.57455.15326,45.791-5.6505,10.57772-13.40438,8.05858-24.64157,21.48679-13.68889,16.35765-.26815,21.01066-9.97721,32.978-31.19627,38.453-43.69161,11.77954-62.6845,21.88841-24.61876,13.10352-41.08686,24.29528-53.1398,21.67417-47.36592-10.30109-32.77627-41.44546-55.768-53.44651-31.07248-16.21812-46.25234-82.59551-24.92385-105.98721,11.16732-12.24759,22.20643-13.73431,23.2449-23.93748,1.49844-14.7215-20.735-19.00137-22.99149-36.71288-2.55791-20.08447,24.09175-29.8115,20.12465-46.77733-3.86776-16.541-31.22252-15.94606-32.97658-27.75927-2.65968-17.91706,55.71446-50.0017,116.17038-48.009,28.91054.95326,76.00064,10.28292,83.83711,34.37263,4.5248,13.91105-7.24707,22.88474-.61262,40.85386,4.82343,13.06556,15.49606,20.37361,29.63078,29.78626C585.91066,953.529,612.28228,929.51215,633.6984,959.79937Z"/><path fill="#bdbdbd" d="M489.22323,949.01993c9.51018-.47774,14.35946,62.943,8.84425,71.25918-5.516,8.31684-15.88758,14.45457-16.5731,23.53324-.68511,9.07868,3.36377,169.9337,6.72128,167.60639,3.35791-2.32752,31.20958-44.48111,25.64854-54.29659-5.561-9.81568-11.86173-24.98887-10.55773-37.82183,1.3052-12.83335,1.3153-31.10822,4.90965-30.66077,3.595.44685.57951,31.92741,3.08068,38.03021,2.502,6.1036,2.93,10.87817,6.51834,10.98357,3.58851.10581,3.66806-33.1999,9.1441-32.61635,5.47564.58375,1.75427,49.6686-.13044,58.75475-1.88451,9.08635-8.31865,40.45747-14.25789,52.00864-5.939,11.55057-23.994,23.66267-24.435,27.59908-.44119,3.9358,2.45129,97.61485,2.45129,97.61485l-47.29868.85775s17.46961-184.70851,13.573-190.85633c-3.89683-6.14782-28.57434-56.05025-33.85936-61.14729-5.28563-5.09663-8.44526-36.19678-5.65757-36.64686,2.78769-.44987,4.33621,29.88056,10.13754,30.37445,5.80072.49349,8.92239-58.68166,13.12614-58.15848,4.20395.52317-4.08,61.38979-1.81525,65.14366,2.26533,3.75347,15.45608,26.283,19.84115,25.80422,4.38527-.47875-2.41192-166.12813,1.34862-167.99346,3.76094-1.86593,6.585-.319,8.89654,17.0153,2.31157,17.33373,6.793,55.20017,9.38842,55.15373,2.59547-.04745,9.08312-5.75711,9.21416-9.55419C487.61313,1007.20971,484.992,949.23215,489.22323,949.01993Z"/><path fill="#eee" d="M1514.23826,1137.12572c-6.85332,9.69271-1.199,22.30638,5.62284,29.40221,8.38771,8.72532,16.9103,7.37771,20.7932,15.09243,4.69138,9.32279-5.29391,16.17794-.08723,25.92537,3.19961,5.98932,7.58972,4.56276,13.95158,12.16561,7.75066,9.261.152,11.89524,5.64868,18.67083,17.66285,21.7713,24.73708,6.66918,35.49047,12.39257,13.93866,7.41951,23.26247,13.75552,30.08632,12.27142,26.817-5.83223,18.55735-23.46479,31.57445-30.25977,17.592-9.18266,26.18666-46.76359,14.1107-60.007-6.32249-6.9343-12.57228-7.77569-13.16027-13.55239-.84886-8.33481,11.73977-10.75824,13.01711-20.78573,1.448-11.37146-13.64043-16.8786-11.39428-26.48408,2.18981-9.3652,17.67779-9.0288,18.67022-15.71635,1.50632-10.14441-31.54376-28.30943-65.77184-27.18151-16.36835.53953-43.02951,5.82192-47.46607,19.46074-2.562,7.876,4.10279,12.95652.34669,23.13061-2.73075,7.39689-8.77337,11.53441-16.776,16.86366C1541.29418,1133.57558,1526.36309,1119.97776,1514.23826,1137.12572Z"/><path fill="#bdbdbd" d="M1596.03559,1131.02252c-5.38356-.27057-8.12965,35.63646-5.007,40.3448,3.12328,4.70895,8.99528,8.184,9.38337,13.324.38748,5.14025-1.9045,96.21151-3.806,94.89419-1.90106-1.31812-17.66971-25.18413-14.521-30.74134,3.14812-5.55741,6.71542-14.14805,5.977-21.4141-.73882-7.265-.74387-17.61237-2.77921-17.35916-2.03575.25341-.32792,18.07678-1.74438,21.532-1.41646,3.45544-1.659,6.15852-3.69027,6.21849-2.03211.05977-2.07673-18.79662-5.177-18.46649-3.10046.33055-.99384,28.12124.0735,33.26513,1.06714,5.14449,4.70976,22.90628,8.07231,29.446,3.36276,6.53974,13.5849,13.39671,13.83447,15.62549s-1.38778,55.267-1.38778,55.267l26.77928.48522s-9.89119-104.57641-7.68462-108.05668c2.20576-3.48108,16.17773-31.73417,19.17037-34.62,2.99224-2.88562,4.78124-20.49355,3.203-20.74837-1.5788-.25482-2.45553,16.91737-5.73974,17.19682-3.284.27946-5.05161-33.22352-7.43163-32.92731-2.37981.29622,2.30975,34.7567,1.02757,36.8823-1.28259,2.12479-8.75036,14.88081-11.23356,14.60943-2.48239-.27138,1.36578-94.05643-.76305-95.11266-2.12963-1.05685-3.72843-.18092-5.03727,9.63314-1.30843,9.81407-3.84594,31.2528-5.31551,31.22655-1.46977-.02645-5.14267-3.25937-5.21657-5.409C1596.94806,1163.968,1598.43136,1131.14307,1596.03559,1131.02252Z"/><ellipse cx="1000" cy="1581.383" fill="url(#b)" rx="900" ry="318.617"/><path fill="#eee" d="M626.86133,231.93579a88.57849,88.57849,0,0,0-62.83106-26.02551h-88.3479a134.65421,134.65421,0,0,0-263.10107,0H188.85669A88.82684,88.82684,0,0,0,100,294.76709v.00012A88.85665,88.85665,0,0,0,188.85669,383.624H564.03027A88.855,88.855,0,0,0,652.887,294.76721v-.00012A88.57789,88.57789,0,0,0,626.86133,231.93579Z"/><path fill="#eee" d="M1509.48666,376.30369a65.655,65.655,0,0,1,46.57082-19.29029h65.48409a99.80666,99.80666,0,0,1,195.01238,0h17.58484A65.83909,65.83909,0,0,1,1900,422.87469v.00009a65.86117,65.86117,0,0,1-65.86121,65.8613H1556.05748a65.85993,65.85993,0,0,1-65.8612-65.8613v-.00009A65.65455,65.65455,0,0,1,1509.48666,376.30369Z"/><path fill="url(#a)" d="M1188.38963,1234.79874H1123.079a25.9502,25.9502,0,1,1,0-51.90039h65.31067a95.8307,95.8307,0,0,0,95.722-95.722V943.63522a25.95046,25.95046,0,1,1,51.90092,0v143.54116C1336.01252,1168.57593,1269.78841,1234.79874,1188.38963,1234.79874Z"/><rect width="427.707" height="211.274" x="790.646" y="1110.562" fill="url(#c)" rx="17.463"/><path fill="#f2dad4" d="M786.90355,923.21768h0a15.8421,15.8421,0,0,0-15.84223,15.84223v135.66054h96.04182V1003.4178A80.19987,80.19987,0,0,0,786.90355,923.21768Z"/><path fill="#e64d4e" d="M1018.99661,923.21768h0a15.84221,15.84221,0,0,1,15.842,15.84223v135.66054H938.79649V1003.4178A80.2,80.2,0,0,1,1018.99661,923.21768Z"/><path fill="url(#d)" d="M975.48707,1027.76705h23.95778a3.918,3.918,0,0,0,3.91738-3.91738V964.3596a3.91751,3.91751,0,0,0-3.91738-3.91739h0a27.87479,27.87479,0,0,0-27.87516,27.87412v35.53334A3.91783,3.91783,0,0,0,975.48707,1027.76705Z"/><path fill="#e64d4e" d="M786.90355,923.21768h0a15.8421,15.8421,0,0,0-15.84223,15.84223v135.66054h96.04182V1003.4178A80.19987,80.19987,0,0,0,786.90355,923.21768Z"/><path fill="url(#e)" d="M830.41256,1027.76705H806.45531a3.91812,3.91812,0,0,1-3.91791-3.91738V964.3596a3.91762,3.91762,0,0,1,3.91791-3.91739h0A27.87435,27.87435,0,0,1,834.33,988.31633v35.53334A3.91784,3.91784,0,0,1,830.41256,1027.76705Z"/><rect width="263.777" height="196.322" x="771.061" y="983.91" fill="#e64d4e" rx="16.227"/><path fill="#e28d91" d="M931.85381,1180.23171H875.50208a31.72433,31.72433,0,0,1-31.72457-31.72456h0a31.72428,31.72428,0,0,1,31.72457-31.72431h56.35173a31.72422,31.72422,0,0,1,31.72431,31.72431h0A31.72427,31.72427,0,0,1,931.85381,1180.23171Z"/><path fill="#192b59" d="M869.33584,1109.1976a6.766,6.766,0,0,1-6.15816-3.94994c-.33573-.66288-4.02678-7.38078-14.85506-7.38078-11.1596,0-14.82043,7.30707-14.85481,7.38078a6.76952,6.76952,0,1,1-12.30772-5.6414c.28521-.62355,7.23179-15.2791,27.16253-15.2791,19.93152,0,26.87706,14.65555,27.16279,15.2791a6.77151,6.77151,0,0,1-6.14957,9.59134Z"/><path fill="#192b59" d="M936.574,1109.25959a6.79022,6.79022,0,0,1-6.16-9.65333c.28494-.62486,7.23335-15.2791,27.16331-15.2791,19.93152,0,26.87706,14.65555,27.16279,15.2791a6.76952,6.76952,0,1,1-12.30773,5.6414c-.33573-.66288-4.02573-7.38078-14.85506-7.38078-10.83011,0-14.52011,6.71842-14.90456,7.48444A6.68346,6.68346,0,0,1,936.574,1109.25959Z"/><path fill="#192b59" d="M924.37249,1149.617a6.77083,6.77083,0,0,0-9.50408-1.15021,16.37413,16.37413,0,0,1-6.68534,3.00836v-9.0975a9.5,9.5,0,0,0,3.82518-3.69234l4.6209-8.00329a9.61907,9.61907,0,0,0-8.33017-14.42869H899.0577a9.61935,9.61935,0,0,0-8.33122,14.42869l4.62142,8.00329a9.50324,9.50324,0,0,0,3.82518,3.69234v9.21158a16.65123,16.65123,0,0,1-6.84552-2.85026,6.76954,6.76954,0,0,0-8.03429,10.89757,33.74226,33.74226,0,0,0,38.929-.51468A6.77031,6.77031,0,0,0,924.37249,1149.617Z"/><path fill="url(#f)" d="M759.88792,1196.175h497.99257a0,0,0,0,1,0,0v247.31614a4.0057,4.0057,0,0,1-4.0057,4.0057H763.89362a4.0057,4.0057,0,0,1-4.0057-4.0057V1196.175A0,0,0,0,1,759.88792,1196.175Z"/><path fill="#4e9cff" d="M1258.78561,1278.30776H758.98255a10.99023,10.99023,0,0,1-10.83584-12.82657l11.74121-69.30619h497.99257l11.74148,69.30619A10.99087,10.99087,0,0,1,1258.78561,1278.30776Z"/></svg>