<svg xmlns="http://www.w3.org/2000/svg" data-name="Layer 1" viewBox="0 0 3500 2000"><path fill="#8eaeed" d="M1686.3,993.37c-63.8,121.77-162.59,384.16,20.2,439.78,64,20.23,121.3,7,173-25.12,70.06-42.58,119.35-109.11,182.67-159.52,48.45-41.57,103.55-25.58,134.86,21.72,15,25.07,10.1,66.26-19.72,77.41-17.76,6.12-38.72-3.45-46.94-20.76-24-47.63,20-116.77,45.48-147.47,71-85.08,196.27-143.09,296.29-144,235.45-2.24,230.53,155,110.66,228.84-35.61,21.06-84.82,36-118,26.52-15-4.09-26.91-16.35-24.56-32.59,7.16-38.45,58.68-63.9,84-76.06,199.79-84.07,300.2,162.15,493.09-21.55a87.72,87.72,0,0,0,9.46-10.07c1.08-1.43,2.87-.19,1.59,1.3-34.41,39.88-86.58,77.26-143.12,82.23-77.19,6.8-141.32-39.7-214.13-57-142.35-42.55-285.44,91.49-199.3,109.51,55.94,7.42,119.13-27.92,149.89-62.72C2723.91,1097,2583.13,1039.82,2472.1,1044c-123.21,4.65-272.08,89-321.33,193.71-8.7,19.12-16.81,39.88-16.05,61.38.31,22.17,15.9,44.48,38.94,37.51,18.93-7.26,23.26-33.37,17.13-51.14-5.46-15.93-18.14-28-32.34-36.78-51.41-31.57-85.2,6.73-119.38,37-61.22,58.41-117.13,125.44-197.22,157.49-62.76,25.45-138,16.8-191.91-20.26-110.73-80.3-55.3-261.63-16.15-360.05,10.43-25.9,21.13-49.71,33.87-74.5,1.73-3.28,2.81-6.5,6.65-8.27C1682.2,976.22,1690.74,985.7,1686.3,993.37Z"/><path fill="#cad7ff" d="M1147.6,717.5c-4-164,40.89-358.62,222.51-393.68,99.52-24.94,190.32-11.18,273.41,37.13,118,68.44,197.56,182.71,301.87,267.93,111,90.81,230.19,109.6,339.48,14.54,56.31-45.81,139-164,72.16-225.25-19-13.75-37.93-2.73-46.3,14.8-50.62,121.65,111,190.56,200.54,212.69,66.29,16,136.62,20.06,202.67.83,93.34-21.68,241.51-76.62,333.66-54.23,1.35.32,1.43,1.83-.38,1.5-64.12-11.65-119.24,1.17-178.08,16-95.34,22.91-189.92,61.79-273.68,54.41-115.1-4.48-343.89-81.48-295.22-226.57,26.56-66.06,86.47-24.52,89.23,28.38,4.66,43.32-15.91,84.18-39.39,119.21-41.66,59.76-104,110.43-172.12,126.85C1929.16,760.88,1795.22,416.81,1577,345.8c-54.63-19.82-114.39-23.58-171.68-13.35-41.21,8-81.36,17.9-116.26,41-84.4,57.57-111.83,167-120.8,260.77-3,29.36-2.37,56.75-2.33,85.52C1163.67,729.67,1147.83,727.79,1147.6,717.5Z"/><path fill="#86a0e2" d="M1085.88,747.72c-38.17-34.2-103.05-48.51-128.5-19.17l-85.16,83.94c-23.9,27.55-3.53,84.37,45.51,126.92s108.16,54.71,132.06,27.16l74-93.45C1149.26,843.79,1127.83,785.3,1085.88,747.72Z"/><path fill="#86a0e2" d="M1239.6,1699.62h0a23,23,0,0,1-22-24l47.07-984,38.72,1.71-39.84,984.27A23,23,0,0,1,1239.6,1699.62Z"/><path fill="#86a0e2" d="M1002.9,1607.22h0a23,23,0,0,1-15.6-28.54l298-1001.21,37.19,10.9L1031.44,1591.61A23,23,0,0,1,1002.9,1607.22Z"/><path fill="#86a0e2" d="M1619,1614.5h0a23,23,0,0,1-29.28-14.15l-350.23-983.1,36.6-12.75,357.06,980.71A23,23,0,0,1,1619,1614.5Z"/><path fill="#abbaf4" d="M1656.68,842.53c-66.3,73.57-94.31,198.88-37.75,248.23l161.76,165c53.1,46.34,163,7.27,245.5-87.26s106.32-208.72,53.22-255L1899.22,769.94C1842.67,720.59,1729.54,761.68,1656.68,842.53Z"/><ellipse cx="1918.1" cy="1072.36" fill="#86a0e2" rx="212.41" ry="114.65" transform="rotate(-48.89 1918.143 1072.364)"/><ellipse cx="1885.34" cy="1046.58" fill="#7b92db" rx="104.21" ry="58.54" transform="rotate(-48.89 1885.373 1046.584)"/><path fill="#abbaf4" d="M1839,759.51C1782.63,714,1481.4,480,1331.87,473.45S991.64,744.88,991.64,744.88,968.58,782.6,1009,820.73c48.22,45.51,86.15,32,86.15,32s113.23-145.2,191.24-123.53S1626.6,1036.9,1626.6,1036.9Z"/><path fill="#86a0e2" d="M1327.9,751.93c-29.26-18.42-90.66-71.16-54.84-174.46,17.9-51.62,69.29-107.75,107.21-95.83s66.8,24.15,66.8,24.15,2-48.18-67.52-71.35c-35.81-11.92-119.19-11.91-173.37,115.58-46.46,109.34,1.81,173.37,39.73,197.21S1327.9,751.93,1327.9,751.93Z"/><path fill="#ffd19f" d="M579.89,824.52c9.31,9.32,37.7,20.76,56.4,27.62a6.43,6.43,0,0,1,0,12.08c-18.7,6.86-47.09,18.3-56.4,27.61s-20.76,37.71-27.62,56.4a6.43,6.43,0,0,1-12.08,0c-6.86-18.69-18.3-47.08-27.61-56.4s-37.71-20.75-56.4-27.61a6.43,6.43,0,0,1,0-12.08c18.69-6.86,47.08-18.3,56.4-27.62s20.75-37.7,27.61-56.39a6.43,6.43,0,0,1,12.08,0C559.13,786.82,570.57,815.21,579.89,824.52Z"/><path fill="#ffd19f" d="M2280.52,893.87c7.42,7.43,30,16.54,44.94,22a5.13,5.13,0,0,1,0,9.63c-14.9,5.46-37.52,14.58-44.94,22s-16.54,30-22,44.94a5.13,5.13,0,0,1-9.63,0c-5.46-14.9-14.58-37.51-22-44.94s-30-16.54-44.94-22a5.13,5.13,0,0,1,0-9.63c14.9-5.46,37.52-14.57,44.94-22s16.54-30,22-44.94a5.13,5.13,0,0,1,9.63,0C2264,863.83,2273.1,886.45,2280.52,893.87Z"/><path fill="#ffb27d" d="M938.86,1247.16c4.89,4.89,19.8,10.9,29.61,14.5a3.38,3.38,0,0,1,0,6.35c-9.81,3.6-24.72,9.6-29.61,14.5s-10.9,19.8-14.51,29.61a3.37,3.37,0,0,1-6.34,0c-3.6-9.81-9.61-24.72-14.5-29.61s-19.8-10.9-29.62-14.5a3.38,3.38,0,0,1,0-6.35c9.82-3.6,24.73-9.61,29.62-14.5s10.9-19.8,14.5-29.62a3.37,3.37,0,0,1,6.34,0C928,1227.36,934,1242.27,938.86,1247.16Z"/></svg>